<svg width="20" height="20" viewBox="0 0 20 20" fill="none" xmlns="http://www.w3.org/2000/svg">
<path d="M19.8189 10C19.8189 12.6522 18.8108 15.1957 17.0163 17.0711C15.2218 18.9464 12.788 20 10.2503 20C7.71251 20 5.27869 18.9464 3.48423 17.0711C1.68976 15.1957 0.681641 12.6522 0.681641 10C0.681641 7.34784 1.68976 4.8043 3.48423 2.92893C5.27869 1.05357 7.71251 0 10.2503 0C12.788 0 15.2218 1.05357 17.0163 2.92893C18.8108 4.8043 19.8189 7.34784 19.8189 10ZM15.0705 6.2125C14.985 6.12352 14.8833 6.05347 14.7714 6.00652C14.6594 5.95957 14.5396 5.9367 14.419 5.93926C14.2984 5.94183 14.1795 5.96979 14.0695 6.02146C13.9595 6.07313 13.8606 6.14746 13.7787 6.24L9.62472 11.7712L7.12133 9.15375C6.95127 8.98815 6.72636 8.898 6.49396 8.90228C6.26156 8.90657 6.03982 9.00496 5.87547 9.17672C5.71111 9.34849 5.61696 9.58022 5.61286 9.8231C5.60876 10.066 5.69503 10.301 5.85348 10.4788L9.01831 13.7875C9.10357 13.8764 9.20509 13.9465 9.31683 13.9936C9.42857 14.0406 9.54823 14.0637 9.66867 14.0613C9.78911 14.059 9.90787 14.0313 10.0179 13.98C10.1279 13.9286 10.2268 13.8547 10.3089 13.7625L15.0836 7.525C15.2464 7.34812 15.3363 7.11159 15.3341 6.8662C15.3319 6.6208 15.2376 6.3861 15.0717 6.2125H15.0705Z" fill="#7731E4"/>
</svg>
