<svg width="24" height="24" viewBox="0 0 24 24" fill="none" xmlns="http://www.w3.org/2000/svg">
<path d="M19.2081 10.3778V19.3671C19.2081 19.9547 18.9747 20.5183 18.5592 20.9338C18.1437 21.3493 17.5802 21.5827 16.9925 21.5827H6.6531C6.06548 21.5827 5.50194 21.3493 5.08643 20.9338C4.67093 20.5183 4.4375 19.9547 4.4375 19.3671V4.59646C4.4375 4.00884 4.67093 3.4453 5.08643 3.02979C5.50194 2.61429 6.06548 2.38086 6.6531 2.38086H11.2112C11.6028 2.38092 11.9784 2.53649 12.2553 2.81336L18.7756 9.33368C19.0525 9.61062 19.2081 9.98617 19.2081 10.3778Z" stroke="black" stroke-width="1.40673" stroke-linejoin="round"/>
<path d="M11.8216 2.75V8.28899C11.8216 8.68073 11.9772 9.05643 12.2542 9.33343C12.5312 9.61044 12.9069 9.76605 13.2986 9.76605H18.8376M8.12891 13.4587H15.5142M8.12891 17.1514H15.5142" stroke="black" stroke-width="1.40673" stroke-linecap="round" stroke-linejoin="round"/>
</svg>
