<svg width="16" height="16" viewBox="0 0 16 16" fill="none" xmlns="http://www.w3.org/2000/svg">
<g clip-path="url(#clip0_1_29910)">
<path d="M8.00016 4C7.47275 4 6.95717 4.1564 6.51864 4.44941C6.08011 4.74243 5.73832 5.15891 5.53649 5.64618C5.33465 6.13345 5.28184 6.66962 5.38474 7.18691C5.48763 7.70419 5.74161 8.17935 6.11455 8.55229C6.48749 8.92523 6.96264 9.1792 7.47992 9.28209C7.99721 9.38499 8.53338 9.33218 9.02065 9.13035C9.50792 8.92851 9.9244 8.58672 10.2174 8.14819C10.5104 7.70966 10.6668 7.19408 10.6668 6.66667C10.6668 5.95942 10.3859 5.28115 9.88578 4.78105C9.38569 4.28095 8.70741 4 8.00016 4ZM8.00016 8C7.73646 8 7.47867 7.9218 7.2594 7.77529C7.04014 7.62878 6.86924 7.42055 6.76832 7.17691C6.66741 6.93328 6.641 6.66519 6.69245 6.40655C6.7439 6.14791 6.87089 5.91033 7.05736 5.72386C7.24383 5.53739 7.4814 5.4104 7.74004 5.35895C7.99868 5.30751 8.26677 5.33391 8.51041 5.43483C8.75404 5.53574 8.96228 5.70664 9.10879 5.92591C9.2553 6.14517 9.3335 6.40296 9.3335 6.66667C9.3335 7.02029 9.19302 7.35943 8.94297 7.60948C8.69292 7.85952 8.35379 8 8.00016 8Z" fill="#191919"/>
<path d="M7.99996 16.0002C7.43859 16.0031 6.8847 15.8714 6.38467 15.6163C5.88464 15.3611 5.45303 14.9898 5.12596 14.5336C2.5853 11.0289 1.29663 8.39424 1.29663 6.70224C1.29663 4.9244 2.00287 3.21938 3.25999 1.96226C4.51711 0.705144 6.22213 -0.00109863 7.99996 -0.00109863C9.7778 -0.00109863 11.4828 0.705144 12.7399 1.96226C13.9971 3.21938 14.7033 4.9244 14.7033 6.70224C14.7033 8.39424 13.4146 11.0289 10.874 14.5336C10.5469 14.9898 10.1153 15.3611 9.61525 15.6163C9.11522 15.8714 8.56133 16.0031 7.99996 16.0002ZM7.99996 1.45423C6.60824 1.45582 5.27398 2.00939 4.28988 2.99348C3.30578 3.97758 2.75222 5.31185 2.75063 6.70357C2.75063 8.04357 4.01263 10.5216 6.3033 13.6809C6.49776 13.9488 6.75288 14.1668 7.04777 14.3171C7.34267 14.4674 7.66897 14.5458 7.99996 14.5458C8.33096 14.5458 8.65726 14.4674 8.95216 14.3171C9.24705 14.1668 9.50217 13.9488 9.69663 13.6809C11.9873 10.5216 13.2493 8.04357 13.2493 6.70357C13.2477 5.31185 12.6941 3.97758 11.71 2.99348C10.726 2.00939 9.39169 1.45582 7.99996 1.45423Z" fill="#191919"/>
</g>
<defs>
<clipPath id="clip0_1_29910">
<rect width="16" height="16" fill="white"/>
</clipPath>
</defs>
</svg>
