<svg width="16" height="16" viewBox="0 0 16 16" fill="none" xmlns="http://www.w3.org/2000/svg">
<g clip-path="url(#clip0_1_29511)">
<path d="M14.5333 3.71942L9.86667 0.570089C9.31615 0.195687 8.66577 -0.0045166 8 -0.0045166C7.33423 -0.0045166 6.68385 0.195687 6.13333 0.570089L1.46667 3.71942C1.01477 4.02487 0.644731 4.43655 0.389017 4.91834C0.133302 5.40013 -0.000276279 5.93731 4.29026e-07 6.48276V12.6668C0.001059 13.5505 0.352588 14.3977 0.97748 15.0226C1.60237 15.6475 2.4496 15.999 3.33333 16.0001H12.6667C13.5504 15.999 14.3976 15.6475 15.0225 15.0226C15.6474 14.3977 15.9989 13.5505 16 12.6668V6.48276C16.0003 5.93731 15.8667 5.40013 15.611 4.91834C15.3553 4.43655 14.9852 4.02487 14.5333 3.71942ZM14.6667 12.6668C14.6667 13.1972 14.456 13.7059 14.0809 14.081C13.7058 14.456 13.1971 14.6668 12.6667 14.6668H3.33333C2.8029 14.6668 2.29419 14.456 1.91912 14.081C1.54405 13.7059 1.33333 13.1972 1.33333 12.6668V6.48276C1.33332 6.15537 1.41367 5.83298 1.56733 5.5439C1.721 5.25482 1.94328 5.00787 2.21467 4.82476L6.88133 1.67542C7.21132 1.45124 7.60106 1.33137 8 1.33137C8.39894 1.33137 8.78868 1.45124 9.11867 1.67542L13.7853 4.82476C14.0567 5.00787 14.279 5.25482 14.4327 5.5439C14.5863 5.83298 14.6667 6.15537 14.6667 6.48276V12.6668ZM8 4.67076C7.20816 4.67066 6.43411 4.90558 5.7759 5.34577C5.11768 5.78596 4.60493 6.4116 4.30258 7.14344C4.00023 7.87528 3.9219 8.6804 4.0775 9.4568C4.23311 10.2332 4.61565 10.9459 5.17667 11.5048L6.39267 12.6941C6.82355 13.1114 7.39985 13.3447 7.99967 13.3447C8.59948 13.3447 9.17578 13.1114 9.60667 12.6941L10.8287 11.4994C11.3882 10.94 11.7692 10.2272 11.9236 9.45125C12.078 8.67526 11.9988 7.87092 11.696 7.13996C11.3932 6.40899 10.8804 5.78424 10.2225 5.34472C9.56465 4.90521 8.7912 4.67066 8 4.67076ZM9.89067 10.5514L8.674 11.7414C8.49319 11.9165 8.25136 12.0144 7.99967 12.0144C7.74797 12.0144 7.50614 11.9165 7.32533 11.7414L6.114 10.5568C5.7413 10.184 5.48742 9.70923 5.38442 9.1923C5.28142 8.67537 5.33392 8.13951 5.53529 7.65241C5.73666 7.1653 6.07787 6.7488 6.51582 6.4555C6.95377 6.16221 7.46882 6.00527 7.99591 6.00453C8.523 6.00379 9.03849 6.15926 9.47726 6.45132C9.91604 6.74338 10.2584 7.15892 10.4612 7.64545C10.6639 8.13199 10.7179 8.6677 10.6164 9.18491C10.5149 9.70213 10.2623 10.1777 9.89067 10.5514ZM8.66667 8.66676C8.66667 8.79861 8.62757 8.9275 8.55431 9.03714C8.48106 9.14677 8.37694 9.23222 8.25512 9.28268C8.13331 9.33313 7.99926 9.34634 7.86994 9.32061C7.74062 9.29489 7.62183 9.2314 7.5286 9.13816C7.43536 9.04493 7.37187 8.92614 7.34614 8.79682C7.32042 8.6675 7.33362 8.53345 7.38408 8.41163C7.43454 8.28982 7.51999 8.1857 7.62962 8.11244C7.73925 8.03919 7.86815 8.00009 8 8.00009C8.17681 8.00009 8.34638 8.07033 8.47141 8.19535C8.59643 8.32038 8.66667 8.48994 8.66667 8.66676Z" fill="black"/>
</g>
<defs>
<clipPath id="clip0_1_29511">
<rect width="16" height="16" fill="white"/>
</clipPath>
</defs>
</svg>
