<svg width="37" height="37" viewBox="0 0 37 37" fill="none" xmlns="http://www.w3.org/2000/svg">
<circle cx="18.9866" cy="18.9817" r="18.0061" fill="#7731E4"/>
<g clip-path="url(#clip0_1_22442)">
<path d="M12.2342 23.7749C11.7517 24.2572 11.4806 24.9113 11.4805 25.5935V26.9137H12.8007C13.4829 26.9136 14.137 26.6425 14.6193 26.16L23.1999 17.5795L20.8147 15.1943L12.2342 23.7749Z" fill="white"/>
<path d="M26.3631 12.0287C26.2065 11.8719 26.0205 11.7475 25.8159 11.6627C25.6112 11.5779 25.3918 11.5342 25.1702 11.5342C24.9486 11.5342 24.7292 11.5779 24.5245 11.6627C24.3198 11.7475 24.1339 11.8719 23.9773 12.0287L21.7227 14.2839L24.1078 16.6691L26.3631 14.4145C26.5198 14.2579 26.6442 14.0719 26.7291 13.8672C26.8139 13.6625 26.8576 13.4431 26.8576 13.2216C26.8576 13 26.8139 12.7806 26.7291 12.5759C26.6442 12.3712 26.5198 12.1853 26.3631 12.0287Z" fill="white"/>
</g>
<defs>
<clipPath id="clip0_1_22442">
<rect width="15.4338" height="15.4338" fill="white" transform="translate(11.4805 11.4795)"/>
</clipPath>
</defs>
</svg>
