<svg width="16" height="16" viewBox="0 0 16 16" fill="none" xmlns="http://www.w3.org/2000/svg">
<g clip-path="url(#clip0_1_29510)">
<path d="M9.28816 2.66667C9.83046 2.6672 10.3504 2.88286 10.7338 3.26632C11.1173 3.64978 11.333 4.16971 11.3335 4.712C11.3335 4.88881 11.4037 5.05838 11.5288 5.1834C11.6538 5.30843 11.8234 5.37867 12.0002 5.37867C12.177 5.37867 12.3465 5.30843 12.4716 5.1834C12.5966 5.05838 12.6668 4.88881 12.6668 4.712V4.66667C12.6668 4.654 12.6668 4.64267 12.6668 4.63C12.6446 3.74849 12.2789 2.91052 11.6478 2.2947C11.0167 1.67889 10.17 1.33392 9.28816 1.33333H8.66683V0.666667C8.66683 0.489856 8.59659 0.320286 8.47157 0.195262C8.34654 0.0702379 8.17697 0 8.00016 0C7.82335 0 7.65378 0.0702379 7.52876 0.195262C7.40373 0.320286 7.3335 0.489856 7.3335 0.666667V1.33333H6.71216C5.91037 1.33419 5.13502 1.62016 4.52469 2.14012C3.91436 2.66008 3.50884 3.38015 3.3806 4.17162C3.25236 4.96308 3.40977 5.77436 3.82469 6.46044C4.23961 7.14652 4.885 7.66268 5.6455 7.91667L7.3335 8.48V13.3333H6.71216C6.16987 13.3328 5.64994 13.1171 5.26648 12.7337C4.88302 12.3502 4.66736 11.8303 4.66683 11.288C4.66683 11.1112 4.59659 10.9416 4.47157 10.8166C4.34654 10.6916 4.17697 10.6213 4.00016 10.6213C3.82335 10.6213 3.65378 10.6916 3.52876 10.8166C3.40373 10.9416 3.3335 11.1112 3.3335 11.288V11.3333C3.3335 11.346 3.3335 11.3573 3.3335 11.37C3.35574 12.2515 3.7214 13.0895 4.35254 13.7053C4.98367 14.3211 5.83037 14.6661 6.71216 14.6667H7.3335V15.3333C7.3335 15.5101 7.40373 15.6797 7.52876 15.8047C7.65378 15.9298 7.82335 16 8.00016 16C8.17697 16 8.34654 15.9298 8.47157 15.8047C8.59659 15.6797 8.66683 15.5101 8.66683 15.3333V14.6667H9.28816C10.09 14.6658 10.8653 14.3798 11.4756 13.8599C12.086 13.3399 12.4915 12.6199 12.6197 11.8284C12.748 11.0369 12.5906 10.2256 12.1756 9.53956C11.7607 8.85348 11.1153 8.33732 10.3548 8.08333L8.66683 7.52V2.66667H9.28816ZM9.93483 9.34733C10.3958 9.50075 10.7871 9.81323 11.0386 10.2288C11.2902 10.6444 11.3857 11.136 11.3079 11.6155C11.2301 12.0951 10.9841 12.5313 10.614 12.846C10.244 13.1608 9.77397 13.3335 9.28816 13.3333H8.66683V8.92467L9.93483 9.34733ZM7.3335 7.07533L6.06683 6.65267C5.60599 6.49929 5.21477 6.18691 4.96319 5.77146C4.7116 5.356 4.61607 4.86457 4.6937 4.38512C4.77132 3.90566 5.01703 3.46948 5.38685 3.15463C5.75667 2.83978 6.22647 2.6668 6.71216 2.66667H7.3335V7.07533Z" fill="black"/>
</g>
<defs>
<clipPath id="clip0_1_29510">
<rect width="16" height="16" fill="white"/>
</clipPath>
</defs>
</svg>
