<svg width="245" height="247" viewBox="0 0 245 247" fill="none" xmlns="http://www.w3.org/2000/svg">
<path d="M218.215 111.083C218.215 98.5125 215.739 86.0648 210.929 74.4509C206.118 62.8371 199.067 52.2844 190.178 43.3956C181.289 34.5067 170.737 27.4556 159.123 22.645C147.509 17.8344 135.061 15.3584 122.49 15.3584C109.92 15.3584 97.472 17.8344 85.8582 22.645C74.2443 27.4556 63.6917 34.5067 54.8028 43.3956C45.9139 52.2844 38.8629 62.8371 34.0522 74.4509C29.2416 86.0648 26.7656 98.5125 26.7656 111.083L122.49 111.083H218.215Z" fill="white"/>
<g filter="url(#filter0_i_1_20784)">
<path d="M208.109 111.085C208.957 111.085 209.646 110.397 209.631 109.549C209.439 98.6271 207.194 87.8338 203.011 77.7333C198.631 67.1595 192.211 57.5518 184.118 49.459C176.026 41.3661 166.418 34.9465 155.844 30.5667C145.27 26.1869 133.937 23.9326 122.492 23.9326C111.047 23.9326 99.7143 26.1869 89.1405 30.5667C78.5667 34.9465 68.959 41.3661 60.8662 49.459C52.7733 57.5519 46.3537 67.1595 41.9739 77.7333C37.7901 87.8338 35.5459 98.6271 35.3534 109.549C35.3384 110.397 36.0276 111.085 36.8759 111.085L49.5005 111.085C50.3488 111.085 51.0348 110.397 51.0531 109.549C51.2436 100.689 53.0809 91.9363 56.4758 83.7402C60.0668 75.0708 65.3302 67.1935 71.9654 60.5582C78.6007 53.923 86.478 48.6596 95.1474 45.0686C103.817 41.4776 113.109 39.6293 122.492 39.6293C131.876 39.6293 141.168 41.4776 149.837 45.0686C158.507 48.6596 166.384 53.9229 173.019 60.5582C179.654 67.1935 184.918 75.0707 188.509 83.7401C191.904 91.9362 193.741 100.689 193.932 109.549C193.95 110.397 194.636 111.085 195.484 111.085H208.109Z" fill="#F1F1F1"/>
</g>
<g filter="url(#filter1_i_1_20784)">
<path d="M166.152 37.4371C166.584 36.7073 166.344 35.7637 165.607 35.3441C152.742 28.0211 138.216 24.0912 123.397 23.9373C108.066 23.7781 92.9644 27.6661 79.6162 35.2089C66.268 42.7517 55.1458 53.6824 47.3723 66.8976C39.8586 79.6711 35.7305 94.1421 35.3662 108.94C35.3454 109.788 36.0297 110.481 36.878 110.487L49.5022 110.575C50.3506 110.581 51.0414 109.898 51.0655 109.05C51.4084 97.0133 54.7883 85.2494 60.9019 74.856C67.2753 64.021 76.3943 55.059 87.3384 48.8747C98.2826 42.6904 110.664 39.5026 123.234 39.6332C135.292 39.7584 147.113 42.9326 157.601 48.849C158.34 49.2659 159.281 49.0266 159.714 48.2968L166.152 37.4371Z" fill="url(#paint0_linear_1_20784)"/>
</g>
<path d="M155.417 55.5971L140.781 70.1494C144.435 71.8467 145.957 73.0816 148.267 75.5079L155.417 55.5971Z" fill="url(#paint1_linear_1_20784)"/>
<path d="M54.8977 156.536V155.506C54.4844 155.5 54.1027 155.463 53.7527 155.396C53.406 155.326 53.106 155.236 52.8526 155.126V154.061C53.1093 154.181 53.426 154.29 53.8027 154.386C54.1793 154.483 54.5444 154.538 54.8977 154.551V152.676C54.4144 152.513 54.021 152.343 53.7177 152.166C53.4176 151.99 53.1976 151.784 53.0576 151.551C52.9176 151.314 52.8476 151.031 52.8476 150.701C52.8476 150.361 52.9326 150.069 53.1026 149.826C53.276 149.579 53.516 149.384 53.8227 149.241C54.1327 149.098 54.491 149.013 54.8977 148.986V148.171H55.5478V148.971C55.9178 148.981 56.2595 149.023 56.5728 149.096C56.8895 149.166 57.1912 149.264 57.4779 149.391L57.1129 150.321C56.8628 150.221 56.6028 150.139 56.3328 150.076C56.0628 150.013 55.8011 149.969 55.5478 149.946V151.776C55.9545 151.91 56.3161 152.053 56.6328 152.206C56.9528 152.36 57.2029 152.553 57.3829 152.786C57.5662 153.016 57.6579 153.318 57.6579 153.691C57.6579 154.181 57.4779 154.586 57.1179 154.906C56.7578 155.223 56.2345 155.413 55.5478 155.476V156.536H54.8977ZM55.5478 154.511C55.8678 154.471 56.1061 154.388 56.2628 154.261C56.4195 154.131 56.4978 153.963 56.4978 153.756C56.4978 153.616 56.4645 153.498 56.3978 153.401C56.3345 153.305 56.2328 153.218 56.0928 153.141C55.9561 153.065 55.7744 152.99 55.5478 152.916V154.511ZM54.8977 151.531V149.966C54.7044 149.986 54.541 150.026 54.4077 150.086C54.2744 150.146 54.1743 150.224 54.1077 150.321C54.041 150.418 54.0077 150.533 54.0077 150.666C54.0077 150.813 54.0377 150.938 54.0977 151.041C54.1577 151.144 54.2527 151.234 54.3827 151.311C54.516 151.388 54.6877 151.461 54.8977 151.531ZM61.0931 148.531C61.5164 148.531 61.8981 148.598 62.2382 148.731C62.5782 148.861 62.8482 149.056 63.0482 149.316C63.2482 149.576 63.3482 149.898 63.3482 150.281C63.3482 150.578 63.2866 150.836 63.1632 151.056C63.0432 151.276 62.8799 151.469 62.6732 151.636C62.4665 151.799 62.2348 151.945 61.9781 152.071C62.2648 152.211 62.5282 152.373 62.7682 152.556C63.0115 152.736 63.2065 152.948 63.3532 153.191C63.5032 153.435 63.5782 153.72 63.5782 154.046C63.5782 154.456 63.4732 154.811 63.2632 155.111C63.0565 155.408 62.7682 155.638 62.3982 155.801C62.0281 155.961 61.5965 156.041 61.1031 156.041C60.5731 156.041 60.1214 155.963 59.748 155.806C59.3747 155.65 59.0913 155.426 58.898 155.136C58.7046 154.843 58.6079 154.493 58.6079 154.086C58.6079 153.75 58.6746 153.458 58.808 153.211C58.9413 152.965 59.1196 152.751 59.343 152.571C59.5697 152.391 59.818 152.24 60.088 152.116C59.858 151.98 59.648 151.826 59.458 151.656C59.268 151.483 59.1163 151.284 59.003 151.061C58.893 150.834 58.838 150.573 58.838 150.276C58.838 149.896 58.9396 149.578 59.143 149.321C59.3463 149.061 59.618 148.864 59.958 148.731C60.3014 148.598 60.6797 148.531 61.0931 148.531ZM59.728 154.041C59.728 154.361 59.8413 154.625 60.068 154.831C60.2947 155.038 60.6331 155.141 61.0831 155.141C61.5298 155.141 61.8698 155.04 62.1031 154.836C62.3365 154.633 62.4532 154.365 62.4532 154.031C62.4532 153.818 62.3932 153.63 62.2732 153.466C62.1565 153.303 61.9981 153.158 61.7981 153.031C61.6015 152.901 61.3831 152.781 61.1431 152.671L60.9831 152.606C60.7231 152.716 60.4997 152.841 60.313 152.981C60.1264 153.118 59.9814 153.273 59.878 153.446C59.778 153.62 59.728 153.818 59.728 154.041ZM61.0831 149.436C60.7597 149.436 60.4931 149.516 60.283 149.676C60.0764 149.833 59.973 150.059 59.973 150.356C59.973 150.566 60.023 150.746 60.123 150.896C60.2264 151.046 60.3647 151.176 60.5381 151.286C60.7114 151.393 60.9031 151.493 61.1131 151.586C61.3164 151.496 61.4998 151.398 61.6631 151.291C61.8298 151.181 61.9615 151.051 62.0581 150.901C62.1582 150.748 62.2082 150.564 62.2082 150.351C62.2082 150.058 62.1031 149.833 61.8931 149.676C61.6865 149.516 61.4164 149.436 61.0831 149.436ZM66.0534 154.751L66.1234 154.866C66.0634 155.106 65.9867 155.365 65.8934 155.641C65.8 155.918 65.6984 156.195 65.5884 156.471C65.4783 156.751 65.3667 157.015 65.2533 157.261H64.3933C64.4633 156.991 64.53 156.708 64.5933 156.411C64.66 156.118 64.72 155.828 64.7733 155.541C64.83 155.251 64.875 154.988 64.9083 154.751H66.0534ZM72.2287 152.281C72.2287 152.871 72.1821 153.4 72.0887 153.866C71.9987 154.33 71.8554 154.723 71.6587 155.046C71.462 155.37 71.2054 155.616 70.8887 155.786C70.572 155.956 70.1886 156.041 69.7386 156.041C69.1752 156.041 68.7102 155.893 68.3435 155.596C67.9768 155.296 67.7051 154.866 67.5285 154.306C67.3518 153.743 67.2635 153.068 67.2635 152.281C67.2635 151.494 67.3435 150.821 67.5035 150.261C67.6668 149.698 67.9302 149.266 68.2935 148.966C68.6569 148.666 69.1386 148.516 69.7386 148.516C70.3053 148.516 70.772 148.666 71.1387 148.966C71.5087 149.263 71.7821 149.693 71.9587 150.256C72.1387 150.816 72.2287 151.491 72.2287 152.281ZM68.4485 152.281C68.4485 152.898 68.4885 153.413 68.5685 153.826C68.6519 154.24 68.7885 154.55 68.9786 154.756C69.1686 154.96 69.4219 155.061 69.7386 155.061C70.0553 155.061 70.3086 154.96 70.4986 154.756C70.6887 154.553 70.8253 154.245 70.9087 153.831C70.9953 153.418 71.0387 152.901 71.0387 152.281C71.0387 151.668 70.997 151.154 70.9137 150.741C70.8303 150.328 70.6937 150.018 70.5036 149.811C70.3136 149.601 70.0586 149.496 69.7386 149.496C69.4186 149.496 69.1636 149.601 68.9736 149.811C68.7869 150.018 68.6519 150.328 68.5685 150.741C68.4885 151.154 68.4485 151.668 68.4485 152.281ZM78.0891 152.281C78.0891 152.871 78.0424 153.4 77.9491 153.866C77.8591 154.33 77.7157 154.723 77.5191 155.046C77.3224 155.37 77.0657 155.616 76.749 155.786C76.4323 155.956 76.049 156.041 75.5989 156.041C75.0356 156.041 74.5705 155.893 74.2039 155.596C73.8372 155.296 73.5655 154.866 73.3888 154.306C73.2121 153.743 73.1238 153.068 73.1238 152.281C73.1238 151.494 73.2038 150.821 73.3638 150.261C73.5272 149.698 73.7905 149.266 74.1539 148.966C74.5172 148.666 74.9989 148.516 75.5989 148.516C76.1656 148.516 76.6323 148.666 76.999 148.966C77.369 149.263 77.6424 149.693 77.8191 150.256C77.9991 150.816 78.0891 151.491 78.0891 152.281ZM74.3089 152.281C74.3089 152.898 74.3489 153.413 74.4289 153.826C74.5122 154.24 74.6489 154.55 74.8389 154.756C75.0289 154.96 75.2823 155.061 75.5989 155.061C75.9156 155.061 76.169 154.96 76.359 154.756C76.549 154.553 76.6857 154.245 76.769 153.831C76.8557 153.418 76.899 152.901 76.899 152.281C76.899 151.668 76.8573 151.154 76.774 150.741C76.6907 150.328 76.554 150.018 76.364 149.811C76.174 149.601 75.919 149.496 75.5989 149.496C75.2789 149.496 75.0239 149.601 74.8339 149.811C74.6472 150.018 74.5122 150.328 74.4289 150.741C74.3489 151.154 74.3089 151.668 74.3089 152.281ZM83.9494 152.281C83.9494 152.871 83.9028 153.4 83.8094 153.866C83.7194 154.33 83.5761 154.723 83.3794 155.046C83.1827 155.37 82.926 155.616 82.6094 155.786C82.2927 155.956 81.9093 156.041 81.4593 156.041C80.8959 156.041 80.4309 155.893 80.0642 155.596C79.6975 155.296 79.4258 154.866 79.2492 154.306C79.0725 153.743 78.9841 153.068 78.9841 152.281C78.9841 151.494 79.0641 150.821 79.2242 150.261C79.3875 149.698 79.6508 149.266 80.0142 148.966C80.3776 148.666 80.8593 148.516 81.4593 148.516C82.026 148.516 82.4927 148.666 82.8594 148.966C83.2294 149.263 83.5027 149.693 83.6794 150.256C83.8594 150.816 83.9494 151.491 83.9494 152.281ZM80.1692 152.281C80.1692 152.898 80.2092 153.413 80.2892 153.826C80.3726 154.24 80.5092 154.55 80.6992 154.756C80.8893 154.96 81.1426 155.061 81.4593 155.061C81.776 155.061 82.0293 154.96 82.2193 154.756C82.4093 154.553 82.546 154.245 82.6294 153.831C82.716 153.418 82.7594 152.901 82.7594 152.281C82.7594 151.668 82.7177 151.154 82.6344 150.741C82.551 150.328 82.4143 150.018 82.2243 149.811C82.0343 149.601 81.7793 149.496 81.4593 149.496C81.1393 149.496 80.8843 149.601 80.6942 149.811C80.5076 150.018 80.3726 150.328 80.2892 150.741C80.2092 151.154 80.1692 151.668 80.1692 152.281Z" fill="#7152A2"/>
<path d="M97.9426 123.777V116.758H102.475V117.791H99.226V119.756H101.853V120.769H99.226V123.777H97.9426ZM105.206 123.898C104.725 123.898 104.291 123.787 103.903 123.567C103.522 123.346 103.218 123.042 102.99 122.654C102.77 122.26 102.659 121.805 102.659 121.291C102.659 120.776 102.773 120.325 103 119.937C103.228 119.543 103.532 119.235 103.913 119.014C104.301 118.794 104.735 118.684 105.216 118.684C105.691 118.684 106.119 118.794 106.5 119.014C106.888 119.235 107.192 119.543 107.412 119.937C107.64 120.325 107.753 120.776 107.753 121.291C107.753 121.805 107.64 122.26 107.412 122.654C107.192 123.042 106.888 123.346 106.5 123.567C106.112 123.787 105.681 123.898 105.206 123.898ZM105.206 122.785C105.541 122.785 105.831 122.661 106.079 122.414C106.326 122.16 106.45 121.785 106.45 121.291C106.45 120.796 106.326 120.425 106.079 120.178C105.831 119.924 105.544 119.797 105.216 119.797C104.875 119.797 104.581 119.924 104.334 120.178C104.093 120.425 103.973 120.796 103.973 121.291C103.973 121.785 104.093 122.16 104.334 122.414C104.581 122.661 104.872 122.785 105.206 122.785ZM108.55 123.777V116.558H109.833V123.777H108.55ZM111.486 118.032C111.252 118.032 111.058 117.962 110.904 117.821C110.757 117.681 110.683 117.504 110.683 117.29C110.683 117.076 110.757 116.902 110.904 116.768C111.058 116.628 111.252 116.558 111.486 116.558C111.72 116.558 111.91 116.628 112.057 116.768C112.211 116.902 112.288 117.076 112.288 117.29C112.288 117.504 112.211 117.681 112.057 117.821C111.91 117.962 111.72 118.032 111.486 118.032ZM110.844 123.777V118.804H112.127V123.777H110.844ZM115.502 123.898C115.021 123.898 114.587 123.787 114.199 123.567C113.818 123.346 113.514 123.042 113.286 122.654C113.066 122.26 112.956 121.805 112.956 121.291C112.956 120.776 113.069 120.325 113.297 119.937C113.524 119.543 113.828 119.235 114.209 119.014C114.597 118.794 115.031 118.684 115.512 118.684C115.987 118.684 116.415 118.794 116.796 119.014C117.184 119.235 117.488 119.543 117.708 119.937C117.936 120.325 118.049 120.776 118.049 121.291C118.049 121.805 117.936 122.26 117.708 122.654C117.488 123.042 117.184 123.346 116.796 123.567C116.408 123.787 115.977 123.898 115.502 123.898ZM115.502 122.785C115.837 122.785 116.127 122.661 116.375 122.414C116.622 122.16 116.746 121.785 116.746 121.291C116.746 120.796 116.622 120.425 116.375 120.178C116.127 119.924 115.84 119.797 115.512 119.797C115.172 119.797 114.877 119.924 114.63 120.178C114.389 120.425 114.269 120.796 114.269 121.291C114.269 121.785 114.389 122.16 114.63 122.414C114.877 122.661 115.168 122.785 115.502 122.785ZM123.311 123.898C122.796 123.898 122.342 123.811 121.947 123.637C121.553 123.456 121.242 123.202 121.015 122.875C120.787 122.541 120.67 122.136 120.664 121.662H122.017C122.031 121.989 122.148 122.267 122.368 122.494C122.596 122.714 122.906 122.825 123.301 122.825C123.642 122.825 123.912 122.745 124.113 122.584C124.314 122.417 124.414 122.196 124.414 121.922C124.414 121.635 124.324 121.411 124.143 121.251C123.969 121.09 123.735 120.96 123.441 120.859C123.147 120.759 122.833 120.652 122.499 120.539C121.957 120.351 121.543 120.111 121.255 119.817C120.975 119.523 120.834 119.131 120.834 118.643C120.827 118.229 120.924 117.875 121.125 117.581C121.332 117.28 121.613 117.049 121.967 116.889C122.321 116.722 122.729 116.638 123.19 116.638C123.658 116.638 124.07 116.722 124.424 116.889C124.785 117.056 125.066 117.29 125.266 117.591C125.473 117.891 125.584 118.249 125.597 118.664H124.223C124.217 118.416 124.12 118.199 123.932 118.012C123.752 117.818 123.498 117.721 123.17 117.721C122.89 117.714 122.652 117.785 122.459 117.932C122.271 118.072 122.178 118.279 122.178 118.553C122.178 118.787 122.251 118.974 122.398 119.115C122.545 119.248 122.746 119.362 123 119.456C123.254 119.549 123.545 119.65 123.872 119.756C124.22 119.877 124.537 120.017 124.825 120.178C125.112 120.338 125.343 120.552 125.517 120.819C125.691 121.08 125.777 121.418 125.777 121.832C125.777 122.2 125.684 122.541 125.497 122.855C125.31 123.169 125.032 123.423 124.664 123.617C124.297 123.804 123.846 123.898 123.311 123.898ZM128.953 123.898C128.445 123.898 127.997 123.787 127.609 123.567C127.221 123.346 126.914 123.039 126.687 122.644C126.466 122.25 126.356 121.799 126.356 121.291C126.356 120.783 126.466 120.331 126.687 119.937C126.914 119.543 127.221 119.235 127.609 119.014C127.997 118.794 128.445 118.684 128.953 118.684C129.588 118.684 130.123 118.851 130.557 119.185C130.992 119.512 131.269 119.967 131.389 120.549H130.036C129.969 120.308 129.835 120.121 129.635 119.987C129.441 119.847 129.21 119.777 128.943 119.777C128.589 119.777 128.288 119.91 128.04 120.178C127.793 120.445 127.669 120.816 127.669 121.291C127.669 121.765 127.793 122.136 128.04 122.404C128.288 122.671 128.589 122.805 128.943 122.805C129.21 122.805 129.441 122.738 129.635 122.604C129.835 122.47 129.969 122.28 130.036 122.033H131.389C131.269 122.594 130.992 123.045 130.557 123.386C130.123 123.727 129.588 123.898 128.953 123.898ZM134.564 123.898C134.083 123.898 133.648 123.787 133.261 123.567C132.88 123.346 132.575 123.042 132.348 122.654C132.127 122.26 132.017 121.805 132.017 121.291C132.017 120.776 132.131 120.325 132.358 119.937C132.585 119.543 132.89 119.235 133.271 119.014C133.658 118.794 134.093 118.684 134.574 118.684C135.049 118.684 135.477 118.794 135.858 119.014C136.245 119.235 136.549 119.543 136.77 119.937C136.997 120.325 137.111 120.776 137.111 121.291C137.111 121.805 136.997 122.26 136.77 122.654C136.549 123.042 136.245 123.346 135.858 123.567C135.47 123.787 135.039 123.898 134.564 123.898ZM134.564 122.785C134.898 122.785 135.189 122.661 135.436 122.414C135.684 122.16 135.807 121.785 135.807 121.291C135.807 120.796 135.684 120.425 135.436 120.178C135.189 119.924 134.902 119.797 134.574 119.797C134.233 119.797 133.939 119.924 133.692 120.178C133.451 120.425 133.331 120.796 133.331 121.291C133.331 121.785 133.451 122.16 133.692 122.414C133.939 122.661 134.23 122.785 134.564 122.785ZM137.908 123.777V118.804H139.051L139.171 119.736C139.351 119.416 139.595 119.162 139.903 118.974C140.217 118.781 140.585 118.684 141.006 118.684V120.037H140.645C140.364 120.037 140.114 120.081 139.893 120.168C139.672 120.255 139.499 120.405 139.372 120.619C139.251 120.833 139.191 121.13 139.191 121.511V123.777H137.908ZM143.861 123.898C143.359 123.898 142.915 123.791 142.527 123.577C142.139 123.363 141.835 123.062 141.615 122.674C141.394 122.287 141.284 121.839 141.284 121.331C141.284 120.816 141.391 120.358 141.604 119.957C141.825 119.556 142.126 119.245 142.507 119.025C142.895 118.797 143.349 118.684 143.871 118.684C144.359 118.684 144.79 118.791 145.164 119.004C145.538 119.218 145.829 119.512 146.036 119.887C146.25 120.255 146.357 120.666 146.357 121.12C146.357 121.194 146.354 121.271 146.347 121.351C146.347 121.431 146.344 121.515 146.337 121.601H142.557C142.584 121.989 142.717 122.293 142.958 122.514C143.205 122.735 143.503 122.845 143.851 122.845C144.111 122.845 144.329 122.788 144.502 122.674C144.683 122.554 144.816 122.4 144.903 122.213H146.207C146.113 122.527 145.956 122.815 145.736 123.075C145.522 123.329 145.254 123.53 144.933 123.677C144.619 123.824 144.262 123.898 143.861 123.898ZM143.871 119.726C143.556 119.726 143.279 119.817 143.038 119.997C142.798 120.171 142.644 120.438 142.577 120.799H145.054C145.034 120.472 144.913 120.211 144.693 120.017C144.472 119.823 144.198 119.726 143.871 119.726Z" fill="black"/>
<rect x="35.5391" y="196.501" width="171.73" height="50.1401" rx="10.028" fill="#7731E4"/>
<path d="M59.804 216.333C61.1897 216.333 62.2008 216.632 62.8373 217.229C63.4739 217.822 63.7921 218.64 63.7921 219.682C63.7921 220.153 63.7212 220.603 63.5792 221.034C63.4372 221.46 63.2046 221.839 62.8814 222.172C62.5631 222.505 62.1371 222.77 61.6034 222.966C61.0697 223.157 60.4111 223.252 59.6277 223.252H58.6508V227.071H56.374V216.333H59.804ZM59.6864 218.199H58.6508V221.386H59.4C59.826 221.386 60.1957 221.33 60.5091 221.218C60.8224 221.105 61.0648 220.929 61.2362 220.689C61.4076 220.449 61.4932 220.14 61.4932 219.763C61.4932 219.234 61.3464 218.843 61.0526 218.588C60.7588 218.329 60.3034 218.199 59.6864 218.199ZM70.2261 218.706C70.3388 218.706 70.4685 218.713 70.6154 218.728C70.7672 218.737 70.8896 218.752 70.9827 218.772L70.8137 220.872C70.7403 220.848 70.635 220.831 70.4979 220.821C70.3657 220.806 70.2506 220.799 70.1527 220.799C69.8638 220.799 69.5823 220.836 69.308 220.909C69.0387 220.982 68.7964 221.102 68.5809 221.269C68.3655 221.431 68.1941 221.646 68.0668 221.915C67.9444 222.18 67.8832 222.505 67.8832 222.892V227.071H65.643V218.86H67.3397L67.6702 220.241H67.7803C67.9419 219.962 68.1427 219.707 68.3826 219.477C68.6274 219.242 68.9041 219.056 69.2126 218.919C69.5259 218.777 69.8638 218.706 70.2261 218.706ZM75.8596 218.706C76.6185 218.706 77.2722 218.853 77.8206 219.146C78.369 219.435 78.7926 219.856 79.0912 220.41C79.3899 220.963 79.5393 221.639 79.5393 222.437V223.524H74.2437C74.2682 224.155 74.4567 224.652 74.8093 225.015C75.1667 225.372 75.6613 225.551 76.2929 225.551C76.8168 225.551 77.2967 225.497 77.7325 225.389C78.1683 225.282 78.6163 225.12 79.0766 224.905V226.638C78.6701 226.839 78.2442 226.986 77.7986 227.079C77.3579 227.172 76.8217 227.218 76.1901 227.218C75.3675 227.218 74.6379 227.066 74.0013 226.763C73.3697 226.459 72.8727 225.997 72.5104 225.375C72.1529 224.753 71.9742 223.969 71.9742 223.024C71.9742 222.065 72.1358 221.266 72.4589 220.63C72.787 219.989 73.2424 219.509 73.8251 219.19C74.4077 218.867 75.0859 218.706 75.8596 218.706ZM75.8742 220.299C75.4385 220.299 75.0761 220.439 74.7872 220.718C74.5032 220.997 74.3392 221.435 74.2951 222.033H77.4387C77.4338 221.7 77.3726 221.404 77.2551 221.144C77.1424 220.885 76.9711 220.679 76.7409 220.527C76.5157 220.375 76.2268 220.299 75.8742 220.299ZM80.6336 223.957V222.121H84.5778V223.957H80.6336ZM91.1366 230.685V227.24C91.1366 227.035 91.144 226.829 91.1587 226.623C91.1782 226.413 91.2027 226.207 91.2321 226.006H91.1366C90.9261 226.344 90.6347 226.631 90.2626 226.866C89.8954 227.101 89.4106 227.218 88.8083 227.218C87.8829 227.218 87.1337 226.861 86.5608 226.146C85.9929 225.426 85.7089 224.371 85.7089 222.98C85.7089 222.045 85.8411 221.262 86.1055 220.63C86.3699 219.993 86.7371 219.514 87.2072 219.19C87.6821 218.867 88.2305 218.706 88.8524 218.706C89.4547 218.706 89.9419 218.823 90.314 219.058C90.691 219.288 90.9971 219.572 91.2321 219.91H91.2909L91.4892 218.86H93.3841V230.685H91.1366ZM89.6089 225.463C90.0202 225.463 90.3458 225.382 90.5858 225.22C90.8306 225.059 91.0069 224.816 91.1146 224.493C91.2223 224.165 91.2811 223.756 91.2909 223.267V222.995C91.2909 222.197 91.1684 221.587 90.9236 221.166C90.6788 220.74 90.2283 220.527 89.5722 220.527C89.0385 220.527 88.6419 220.74 88.3823 221.166C88.1228 221.592 87.9931 222.207 87.9931 223.01C87.9931 223.827 88.1253 224.442 88.3897 224.853C88.6541 225.26 89.0605 225.463 89.6089 225.463ZM103.263 218.86V227.071H101.544L101.243 226.021H101.125C100.949 226.3 100.729 226.528 100.464 226.704C100.2 226.88 99.9087 227.01 99.5904 227.093C99.2721 227.177 98.9416 227.218 98.5989 227.218C98.0113 227.218 97.4996 227.115 97.0638 226.91C96.628 226.699 96.2877 226.374 96.0429 225.933C95.803 225.492 95.683 224.919 95.683 224.214V218.86H97.9232V223.656C97.9232 224.244 98.0284 224.687 98.239 224.985C98.4495 225.284 98.7849 225.433 99.2452 225.433C99.7006 225.433 100.058 225.331 100.318 225.125C100.577 224.914 100.758 224.608 100.861 224.207C100.969 223.8 101.023 223.306 101.023 222.723V218.86H103.263ZM108.977 218.691C110.079 218.691 110.923 218.931 111.511 219.411C112.099 219.891 112.392 220.62 112.392 221.599V227.071H110.828L110.395 225.955H110.336C110.101 226.249 109.861 226.489 109.616 226.675C109.371 226.861 109.09 226.998 108.771 227.086C108.453 227.174 108.066 227.218 107.611 227.218C107.126 227.218 106.69 227.125 106.304 226.939C105.922 226.753 105.62 226.469 105.4 226.087C105.18 225.7 105.07 225.211 105.07 224.618C105.07 223.747 105.376 223.105 105.988 222.694C106.6 222.278 107.518 222.047 108.742 222.003L110.167 221.959V221.599C110.167 221.169 110.054 220.853 109.829 220.652C109.604 220.451 109.29 220.351 108.889 220.351C108.492 220.351 108.103 220.407 107.721 220.52C107.339 220.632 106.957 220.774 106.575 220.946L105.833 219.433C106.269 219.203 106.756 219.021 107.295 218.889C107.839 218.757 108.399 218.691 108.977 218.691ZM110.167 223.267L109.3 223.296C108.575 223.316 108.071 223.445 107.787 223.685C107.508 223.925 107.368 224.241 107.368 224.633C107.368 224.976 107.469 225.22 107.67 225.367C107.87 225.509 108.132 225.58 108.456 225.58C108.935 225.58 109.339 225.438 109.667 225.154C110 224.87 110.167 224.466 110.167 223.942V223.267ZM116.946 227.071H114.706V215.643H116.946V227.071ZM121.544 218.86V227.071H119.304V218.86H121.544ZM120.427 215.643C120.76 215.643 121.047 215.721 121.287 215.878C121.527 216.03 121.647 216.316 121.647 216.737C121.647 217.153 121.527 217.442 121.287 217.604C121.047 217.761 120.76 217.839 120.427 217.839C120.09 217.839 119.801 217.761 119.561 217.604C119.326 217.442 119.208 217.153 119.208 216.737C119.208 216.316 119.326 216.03 119.561 215.878C119.801 215.721 120.09 215.643 120.427 215.643ZM128.441 220.542H126.502V227.071H124.261V220.542H123.027V219.462L124.261 218.86V218.258C124.261 217.557 124.379 217.014 124.614 216.627C124.854 216.235 125.189 215.961 125.62 215.804C126.056 215.643 126.57 215.562 127.163 215.562C127.598 215.562 127.995 215.599 128.352 215.672C128.71 215.741 129.001 215.819 129.226 215.907L128.654 217.553C128.482 217.499 128.296 217.45 128.095 217.406C127.895 217.362 127.664 217.34 127.405 217.34C127.092 217.34 126.861 217.435 126.715 217.626C126.573 217.812 126.502 218.052 126.502 218.346V218.86H128.441V220.542ZM131.966 218.86V227.071H129.726V218.86H131.966ZM130.85 215.643C131.183 215.643 131.469 215.721 131.709 215.878C131.949 216.03 132.069 216.316 132.069 216.737C132.069 217.153 131.949 217.442 131.709 217.604C131.469 217.761 131.183 217.839 130.85 217.839C130.512 217.839 130.223 217.761 129.983 217.604C129.748 217.442 129.63 217.153 129.63 216.737C129.63 216.316 129.748 216.03 129.983 215.878C130.223 215.721 130.512 215.643 130.85 215.643ZM137.651 227.218C136.838 227.218 136.145 227.071 135.572 226.777C134.999 226.479 134.564 226.019 134.265 225.397C133.966 224.775 133.817 223.979 133.817 223.01C133.817 222.006 133.986 221.188 134.324 220.557C134.666 219.92 135.139 219.452 135.741 219.154C136.348 218.855 137.051 218.706 137.849 218.706C138.417 218.706 138.907 218.762 139.318 218.875C139.734 218.982 140.097 219.112 140.405 219.264L139.744 220.997C139.392 220.855 139.063 220.74 138.76 220.652C138.456 220.559 138.153 220.512 137.849 220.512C137.457 220.512 137.132 220.605 136.872 220.792C136.613 220.973 136.419 221.247 136.292 221.614C136.165 221.981 136.101 222.442 136.101 222.995C136.101 223.538 136.17 223.989 136.307 224.346C136.444 224.704 136.642 224.971 136.902 225.147C137.161 225.318 137.477 225.404 137.849 225.404C138.314 225.404 138.728 225.343 139.09 225.22C139.453 225.093 139.805 224.917 140.148 224.692V226.609C139.805 226.824 139.445 226.978 139.068 227.071C138.696 227.169 138.224 227.218 137.651 227.218ZM145.422 218.691C146.523 218.691 147.368 218.931 147.956 219.411C148.543 219.891 148.837 220.62 148.837 221.599V227.071H147.272L146.839 225.955H146.78C146.545 226.249 146.305 226.489 146.061 226.675C145.816 226.861 145.534 226.998 145.216 227.086C144.898 227.174 144.511 227.218 144.055 227.218C143.571 227.218 143.135 227.125 142.748 226.939C142.366 226.753 142.065 226.469 141.845 226.087C141.624 225.7 141.514 225.211 141.514 224.618C141.514 223.747 141.82 223.105 142.432 222.694C143.044 222.278 143.962 222.047 145.187 222.003L146.611 221.959V221.599C146.611 221.169 146.499 220.853 146.274 220.652C146.048 220.451 145.735 220.351 145.333 220.351C144.937 220.351 144.548 220.407 144.166 220.52C143.784 220.632 143.402 220.774 143.02 220.946L142.278 219.433C142.714 219.203 143.201 219.021 143.74 218.889C144.283 218.757 144.844 218.691 145.422 218.691ZM146.611 223.267L145.745 223.296C145.02 223.316 144.516 223.445 144.232 223.685C143.953 223.925 143.813 224.241 143.813 224.633C143.813 224.976 143.913 225.22 144.114 225.367C144.315 225.509 144.577 225.58 144.9 225.58C145.38 225.58 145.784 225.438 146.112 225.154C146.445 224.87 146.611 224.466 146.611 223.942V223.267ZM154.61 225.433C154.855 225.433 155.092 225.409 155.322 225.36C155.557 225.311 155.79 225.25 156.02 225.176V226.844C155.78 226.951 155.481 227.039 155.124 227.108C154.771 227.181 154.385 227.218 153.964 227.218C153.474 227.218 153.033 227.14 152.641 226.983C152.255 226.822 151.949 226.545 151.723 226.153C151.503 225.757 151.393 225.206 151.393 224.501V220.542H150.321V219.594L151.554 218.845L152.201 217.112H153.633V218.86H155.932V220.542H153.633V224.501C153.633 224.814 153.721 225.049 153.897 225.206C154.079 225.358 154.316 225.433 154.61 225.433ZM159.927 218.86V227.071H157.687V218.86H159.927ZM158.811 215.643C159.144 215.643 159.43 215.721 159.67 215.878C159.91 216.03 160.03 216.316 160.03 216.737C160.03 217.153 159.91 217.442 159.67 217.604C159.43 217.761 159.144 217.839 158.811 217.839C158.473 217.839 158.184 217.761 157.944 217.604C157.709 217.442 157.592 217.153 157.592 216.737C157.592 216.316 157.709 216.03 157.944 215.878C158.184 215.721 158.473 215.643 158.811 215.643ZM169.747 222.951C169.747 223.636 169.654 224.244 169.468 224.772C169.287 225.301 169.02 225.749 168.668 226.116C168.32 226.479 167.899 226.753 167.404 226.939C166.915 227.125 166.361 227.218 165.744 227.218C165.167 227.218 164.635 227.125 164.151 226.939C163.671 226.753 163.252 226.479 162.895 226.116C162.542 225.749 162.268 225.301 162.072 224.772C161.881 224.244 161.786 223.636 161.786 222.951C161.786 222.04 161.947 221.269 162.27 220.637C162.594 220.006 163.054 219.526 163.651 219.198C164.249 218.87 164.961 218.706 165.789 218.706C166.557 218.706 167.238 218.87 167.83 219.198C168.428 219.526 168.895 220.006 169.233 220.637C169.576 221.269 169.747 222.04 169.747 222.951ZM164.07 222.951C164.07 223.49 164.129 223.942 164.246 224.31C164.364 224.677 164.547 224.954 164.797 225.14C165.047 225.326 165.372 225.419 165.774 225.419C166.17 225.419 166.491 225.326 166.736 225.14C166.986 224.954 167.167 224.677 167.28 224.31C167.397 223.942 167.456 223.49 167.456 222.951C167.456 222.407 167.397 221.957 167.28 221.599C167.167 221.237 166.986 220.965 166.736 220.784C166.486 220.603 166.161 220.512 165.759 220.512C165.167 220.512 164.736 220.716 164.467 221.122C164.202 221.528 164.07 222.138 164.07 222.951ZM176.262 218.706C177.139 218.706 177.844 218.946 178.377 219.425C178.911 219.9 179.178 220.664 179.178 221.717V227.071H176.938V222.275C176.938 221.688 176.83 221.244 176.615 220.946C176.404 220.647 176.071 220.498 175.616 220.498C174.93 220.498 174.463 220.73 174.213 221.195C173.963 221.661 173.838 222.331 173.838 223.208V227.071H171.598V218.86H173.31L173.611 219.91H173.736C173.912 219.626 174.13 219.396 174.389 219.22C174.654 219.043 174.945 218.914 175.263 218.83C175.586 218.747 175.919 218.706 176.262 218.706ZM187.213 224.633C187.213 225.191 187.081 225.664 186.817 226.05C186.557 226.432 186.168 226.724 185.649 226.924C185.13 227.12 184.483 227.218 183.71 227.218C183.137 227.218 182.645 227.181 182.233 227.108C181.827 227.035 181.416 226.912 181 226.741V224.89C181.445 225.091 181.923 225.257 182.432 225.389C182.946 225.517 183.396 225.58 183.783 225.58C184.219 225.58 184.53 225.517 184.716 225.389C184.907 225.257 185.002 225.086 185.002 224.875C185.002 224.738 184.963 224.616 184.885 224.508C184.811 224.395 184.65 224.27 184.4 224.133C184.15 223.991 183.759 223.808 183.225 223.583C182.711 223.367 182.287 223.149 181.954 222.929C181.626 222.709 181.381 222.449 181.22 222.15C181.063 221.847 180.985 221.462 180.985 220.997C180.985 220.238 181.279 219.668 181.866 219.286C182.459 218.899 183.249 218.706 184.239 218.706C184.748 218.706 185.233 218.757 185.693 218.86C186.158 218.963 186.635 219.127 187.125 219.352L186.449 220.968C186.043 220.792 185.659 220.647 185.296 220.534C184.939 220.422 184.574 220.366 184.202 220.366C183.874 220.366 183.626 220.41 183.46 220.498C183.294 220.586 183.21 220.721 183.21 220.902C183.21 221.034 183.252 221.151 183.335 221.254C183.423 221.357 183.59 221.472 183.835 221.599C184.084 221.722 184.449 221.881 184.929 222.077C185.394 222.268 185.798 222.469 186.141 222.679C186.484 222.885 186.748 223.142 186.934 223.45C187.12 223.754 187.213 224.148 187.213 224.633Z" fill="white"/>
<path d="M69.3809 111.271C69.3809 105.181 70.7425 99.1501 73.388 93.5236C76.0335 87.8972 79.9111 82.7848 84.7994 78.4785C89.6877 74.1721 95.4909 70.7562 101.878 68.4256C108.265 66.095 115.11 64.8955 122.023 64.8955C128.936 64.8955 135.781 66.095 142.168 68.4256C148.555 70.7562 154.358 74.1722 159.247 78.4785C164.135 82.7848 168.012 87.8972 170.658 93.5237C173.303 99.1502 174.665 105.181 174.665 111.271L122.023 111.271L69.3809 111.271Z" fill="#171717"/>
<path d="M106.765 100.937L110.883 91.921H105.475V89.9709H113.343V91.426L109.195 100.937H106.765ZM122.074 95.4537C122.074 96.3388 122.003 97.1288 121.863 97.8238C121.728 98.5189 121.508 99.1089 121.203 99.5939C120.903 100.079 120.508 100.449 120.018 100.704C119.528 100.959 118.933 101.087 118.233 101.087C117.353 101.087 116.631 100.864 116.066 100.419C115.501 99.969 115.083 99.3239 114.813 98.4839C114.543 97.6388 114.408 96.6288 114.408 95.4537C114.408 94.2686 114.531 93.2561 114.776 92.416C115.026 91.571 115.431 90.9234 115.991 90.4734C116.551 90.0234 117.298 89.7984 118.233 89.7984C119.108 89.7984 119.828 90.0234 120.393 90.4734C120.963 90.9184 121.386 91.5635 121.661 92.4085C121.936 93.2486 122.074 94.2636 122.074 95.4537ZM116.711 95.4537C116.711 96.2887 116.756 96.9863 116.846 97.5463C116.941 98.1014 117.098 98.5189 117.318 98.7989C117.538 99.0789 117.843 99.2189 118.233 99.2189C118.618 99.2189 118.921 99.0814 119.141 98.8064C119.366 98.5264 119.526 98.1089 119.621 97.5538C119.716 96.9938 119.763 96.2938 119.763 95.4537C119.763 94.6187 119.716 93.9211 119.621 93.3611C119.526 92.801 119.366 92.381 119.141 92.101C118.921 91.816 118.618 91.6735 118.233 91.6735C117.843 91.6735 117.538 91.816 117.318 92.101C117.098 92.381 116.941 92.801 116.846 93.3611C116.756 93.9211 116.711 94.6187 116.711 95.4537ZM125.704 89.8134C126.564 89.8134 127.216 90.1134 127.661 90.7134C128.106 91.3135 128.329 92.156 128.329 93.2411C128.329 94.3261 128.119 95.1737 127.699 95.7837C127.279 96.3938 126.614 96.6988 125.704 96.6988C124.859 96.6988 124.216 96.3938 123.776 95.7837C123.336 95.1737 123.116 94.3261 123.116 93.2411C123.116 92.156 123.321 91.3135 123.731 90.7134C124.146 90.1134 124.804 89.8134 125.704 89.8134ZM125.719 91.381C125.474 91.381 125.294 91.536 125.179 91.846C125.064 92.156 125.006 92.626 125.006 93.2561C125.006 93.8861 125.064 94.3586 125.179 94.6737C125.294 94.9887 125.474 95.1462 125.719 95.1462C125.964 95.1462 126.144 94.9912 126.259 94.6812C126.379 94.3661 126.439 93.8911 126.439 93.2561C126.439 92.626 126.379 92.156 126.259 91.846C126.144 91.536 125.964 91.381 125.719 91.381ZM133.489 89.9709L127.406 100.937H125.606L131.689 89.9709H133.489ZM133.384 94.1936C134.244 94.1936 134.897 94.4936 135.342 95.0937C135.787 95.6937 136.009 96.5363 136.009 97.6213C136.009 98.7014 135.799 99.5464 135.379 100.156C134.959 100.767 134.294 101.072 133.384 101.072C132.539 101.072 131.897 100.767 131.457 100.156C131.017 99.5464 130.797 98.7014 130.797 97.6213C130.797 96.5363 131.002 95.6937 131.412 95.0937C131.827 94.4936 132.484 94.1936 133.384 94.1936ZM133.399 95.7612C133.154 95.7612 132.974 95.9162 132.859 96.2262C132.744 96.5363 132.687 97.0063 132.687 97.6363C132.687 98.2664 132.744 98.7389 132.859 99.0539C132.974 99.3689 133.154 99.5264 133.399 99.5264C133.644 99.5264 133.824 99.3714 133.939 99.0614C134.059 98.7464 134.119 98.2714 134.119 97.6363C134.119 97.0063 134.059 96.5363 133.939 96.2262C133.824 95.9162 133.644 95.7612 133.399 95.7612Z" fill="white"/>
<g filter="url(#filter2_d_1_20784)">
<rect x="5.46094" y="136.339" width="233.377" height="40.522" rx="8.25448" fill="#F5F5F5"/>
</g>
<g clip-path="url(#clip0_1_20784)">
<path d="M224.383 151.783C224.054 151.455 223.608 151.271 223.144 151.271C222.679 151.271 222.233 151.455 221.904 151.783L214.037 159.651C213.812 159.875 213.633 160.141 213.511 160.435C213.39 160.728 213.327 161.043 213.328 161.361V162.354C213.328 162.482 213.379 162.605 213.47 162.696C213.561 162.787 213.684 162.838 213.812 162.838H214.805C215.123 162.838 215.437 162.776 215.731 162.655C216.024 162.533 216.291 162.355 216.515 162.129L224.383 154.261C224.711 153.933 224.895 153.487 224.895 153.022C224.895 152.558 224.711 152.112 224.383 151.783ZM215.831 161.445C215.558 161.716 215.19 161.869 214.805 161.87H214.296V161.361C214.295 161.17 214.332 160.981 214.405 160.805C214.478 160.629 214.586 160.469 214.721 160.335L220.692 154.364L221.804 155.477L215.831 161.445ZM223.698 153.577L222.486 154.79L221.374 153.68L222.586 152.467C222.659 152.394 222.746 152.337 222.841 152.297C222.937 152.258 223.039 152.238 223.142 152.238C223.245 152.238 223.348 152.258 223.443 152.298C223.538 152.337 223.625 152.395 223.698 152.469C223.771 152.542 223.828 152.628 223.868 152.724C223.907 152.819 223.927 152.921 223.927 153.024C223.927 153.128 223.907 153.23 223.867 153.325C223.828 153.42 223.77 153.507 223.696 153.58L223.698 153.577Z" fill="#7731E4"/>
</g>
<path d="M230.375 157.031C230.375 163.443 225.178 168.64 218.767 168.64C212.356 168.64 207.158 163.443 207.158 157.031C207.158 150.62 212.356 145.423 218.767 145.423C225.178 145.423 230.375 150.62 230.375 157.031Z" fill="#7731E4" fill-opacity="0.18"/>
<path d="M147.482 160.031H148.26V162.133H147.482V160.031ZM147.586 159.846V153.496L148.144 153.368V159.869L147.586 159.846ZM147.482 151.313H148.26V153.229L147.482 153.345V151.313ZM150.047 154.692C149.993 154.637 149.893 154.564 149.746 154.471C149.606 154.378 149.432 154.289 149.223 154.204C149.022 154.119 148.801 154.045 148.561 153.983C148.322 153.914 148.078 153.879 147.83 153.879C147.397 153.879 147.068 153.96 146.843 154.123C146.627 154.285 146.518 154.514 146.518 154.808C146.518 155.032 146.588 155.21 146.727 155.342C146.867 155.473 147.076 155.585 147.354 155.678C147.633 155.771 147.981 155.872 148.399 155.98C148.941 156.112 149.409 156.274 149.804 156.468C150.206 156.653 150.512 156.901 150.721 157.211C150.937 157.512 151.046 157.915 151.046 158.418C151.046 158.859 150.964 159.238 150.802 159.556C150.639 159.865 150.415 160.117 150.129 160.31C149.842 160.504 149.513 160.647 149.142 160.74C148.778 160.825 148.395 160.867 147.993 160.867C147.582 160.867 147.168 160.825 146.751 160.74C146.34 160.654 145.946 160.535 145.566 160.38C145.195 160.217 144.851 160.024 144.533 159.799L145.241 158.418C145.311 158.488 145.435 158.58 145.613 158.696C145.791 158.805 146.004 158.917 146.251 159.033C146.507 159.141 146.785 159.234 147.087 159.312C147.397 159.389 147.706 159.428 148.016 159.428C148.449 159.428 148.778 159.354 149.003 159.207C149.227 159.06 149.339 158.851 149.339 158.58C149.339 158.333 149.25 158.139 149.072 158C148.894 157.861 148.643 157.741 148.318 157.64C148 157.532 147.629 157.416 147.203 157.292C146.677 157.145 146.24 156.982 145.892 156.804C145.543 156.619 145.284 156.386 145.114 156.108C144.943 155.829 144.858 155.481 144.858 155.063C144.858 154.498 144.994 154.026 145.265 153.647C145.536 153.26 145.899 152.97 146.356 152.776C146.812 152.575 147.319 152.474 147.877 152.474C148.264 152.474 148.627 152.517 148.968 152.602C149.316 152.687 149.641 152.799 149.943 152.939C150.245 153.078 150.516 153.229 150.755 153.391L150.047 154.692ZM157.094 162.249V160.519H153.704V159.138L157.593 154.146H158.65V159.126H159.671V160.519H158.65V162.249H157.094ZM155.26 159.126H157.268V156.502L155.26 159.126ZM162.739 162.504C162.143 162.504 161.605 162.376 161.126 162.121C160.646 161.866 160.282 161.517 160.034 161.076L160.928 160.148C161.145 160.449 161.416 160.689 161.741 160.867C162.066 161.045 162.402 161.134 162.751 161.134C163.029 161.134 163.273 161.076 163.482 160.96C163.699 160.844 163.869 160.682 163.993 160.473C164.117 160.264 164.179 160.024 164.179 159.753C164.179 159.482 164.12 159.246 164.004 159.045C163.888 158.844 163.73 158.689 163.528 158.58C163.327 158.464 163.099 158.406 162.844 158.406C162.588 158.406 162.348 158.464 162.124 158.58C161.907 158.689 161.733 158.847 161.601 159.056H160.243L161.195 154.146H165.258V155.562H162.321L161.985 157.408C162.085 157.315 162.224 157.238 162.402 157.176C162.58 157.106 162.801 157.071 163.064 157.071C163.583 157.071 164.047 157.184 164.457 157.408C164.867 157.632 165.188 157.946 165.421 158.348C165.653 158.743 165.769 159.2 165.769 159.718C165.769 160.268 165.637 160.751 165.374 161.169C165.111 161.595 164.751 161.924 164.295 162.156C163.838 162.388 163.32 162.504 162.739 162.504ZM172.278 157.373C172.278 158.054 172.146 158.662 171.883 159.196C171.628 159.722 171.272 160.136 170.815 160.438C170.366 160.74 169.856 160.89 169.283 160.89C168.71 160.89 168.196 160.74 167.739 160.438C167.29 160.136 166.934 159.722 166.671 159.196C166.416 158.662 166.288 158.054 166.288 157.373C166.288 156.692 166.416 156.088 166.671 155.562C166.934 155.028 167.29 154.61 167.739 154.308C168.196 153.999 168.71 153.844 169.283 153.844C169.856 153.844 170.366 153.999 170.815 154.308C171.272 154.61 171.628 155.028 171.883 155.562C172.146 156.088 172.278 156.692 172.278 157.373ZM170.711 157.373C170.711 156.955 170.649 156.591 170.525 156.282C170.409 155.965 170.243 155.717 170.026 155.539C169.809 155.361 169.562 155.272 169.283 155.272C168.997 155.272 168.745 155.361 168.528 155.539C168.312 155.717 168.141 155.965 168.018 156.282C167.902 156.591 167.843 156.955 167.843 157.373C167.843 157.791 167.902 158.155 168.018 158.464C168.141 158.774 168.312 159.018 168.528 159.196C168.745 159.374 168.997 159.463 169.283 159.463C169.562 159.463 169.805 159.374 170.014 159.196C170.231 159.018 170.401 158.774 170.525 158.464C170.649 158.147 170.711 157.783 170.711 157.373ZM173.291 162.109L173.604 160.728H173.117V159.103H174.463V160.728L173.987 162.109H173.291ZM181.294 157.373C181.294 158.054 181.162 158.662 180.899 159.196C180.644 159.722 180.288 160.136 179.831 160.438C179.382 160.74 178.872 160.89 178.299 160.89C177.726 160.89 177.212 160.74 176.755 160.438C176.306 160.136 175.95 159.722 175.687 159.196C175.432 158.662 175.304 158.054 175.304 157.373C175.304 156.692 175.432 156.088 175.687 155.562C175.95 155.028 176.306 154.61 176.755 154.308C177.212 153.999 177.726 153.844 178.299 153.844C178.872 153.844 179.382 153.999 179.831 154.308C180.288 154.61 180.644 155.028 180.899 155.562C181.162 156.088 181.294 156.692 181.294 157.373ZM179.727 157.373C179.727 156.955 179.665 156.591 179.541 156.282C179.425 155.965 179.259 155.717 179.042 155.539C178.825 155.361 178.578 155.272 178.299 155.272C178.013 155.272 177.761 155.361 177.544 155.539C177.328 155.717 177.158 155.965 177.034 156.282C176.918 156.591 176.86 156.955 176.86 157.373C176.86 157.791 176.918 158.155 177.034 158.464C177.158 158.774 177.328 159.018 177.544 159.196C177.761 159.374 178.013 159.463 178.299 159.463C178.578 159.463 178.821 159.374 179.03 159.196C179.247 159.018 179.417 158.774 179.541 158.464C179.665 158.147 179.727 157.783 179.727 157.373ZM188.018 157.373C188.018 158.054 187.887 158.662 187.624 159.196C187.368 159.722 187.012 160.136 186.556 160.438C186.107 160.74 185.596 160.89 185.023 160.89C184.451 160.89 183.936 160.74 183.479 160.438C183.031 160.136 182.675 159.722 182.411 159.196C182.156 158.662 182.028 158.054 182.028 157.373C182.028 156.692 182.156 156.088 182.411 155.562C182.675 155.028 183.031 154.61 183.479 154.308C183.936 153.999 184.451 153.844 185.023 153.844C185.596 153.844 186.107 153.999 186.556 154.308C187.012 154.61 187.368 155.028 187.624 155.562C187.887 156.088 188.018 156.692 188.018 157.373ZM186.451 157.373C186.451 156.955 186.389 156.591 186.265 156.282C186.149 155.965 185.983 155.717 185.766 155.539C185.55 155.361 185.302 155.272 185.023 155.272C184.737 155.272 184.485 155.361 184.269 155.539C184.052 155.717 183.882 155.965 183.758 156.282C183.642 156.591 183.584 156.955 183.584 157.373C183.584 157.791 183.642 158.155 183.758 158.464C183.882 158.774 184.052 159.018 184.269 159.196C184.485 159.374 184.737 159.463 185.023 159.463C185.302 159.463 185.546 159.374 185.755 159.196C185.971 159.018 186.142 158.774 186.265 158.464C186.389 158.147 186.451 157.783 186.451 157.373ZM194.743 157.373C194.743 158.054 194.611 158.662 194.348 159.196C194.093 159.722 193.737 160.136 193.28 160.438C192.831 160.74 192.32 160.89 191.748 160.89C191.175 160.89 190.66 160.74 190.204 160.438C189.755 160.136 189.399 159.722 189.136 159.196C188.88 158.662 188.753 158.054 188.753 157.373C188.753 156.692 188.88 156.088 189.136 155.562C189.399 155.028 189.755 154.61 190.204 154.308C190.66 153.999 191.175 153.844 191.748 153.844C192.32 153.844 192.831 153.999 193.28 154.308C193.737 154.61 194.093 155.028 194.348 155.562C194.611 156.088 194.743 156.692 194.743 157.373ZM193.175 157.373C193.175 156.955 193.114 156.591 192.99 156.282C192.874 155.965 192.707 155.717 192.491 155.539C192.274 155.361 192.026 155.272 191.748 155.272C191.461 155.272 191.21 155.361 190.993 155.539C190.776 155.717 190.606 155.965 190.482 156.282C190.366 156.591 190.308 156.955 190.308 157.373C190.308 157.791 190.366 158.155 190.482 158.464C190.606 158.774 190.776 159.018 190.993 159.196C191.21 159.374 191.461 159.463 191.748 159.463C192.026 159.463 192.27 159.374 192.479 159.196C192.696 159.018 192.866 158.774 192.99 158.464C193.114 158.147 193.175 157.783 193.175 157.373Z" fill="#279F57"/>
<path d="M38.772 153.388V160.847H37.3327V157.663H33.9499V160.847H32.5001V153.388H33.9499V156.403H37.3327V153.388H38.772ZM42.4314 160.952C41.9832 160.952 41.5804 160.878 41.2233 160.731C40.8661 160.577 40.5614 160.367 40.3093 160.101C40.0641 159.835 39.875 159.53 39.742 159.187C39.6089 158.844 39.5423 158.483 39.5423 158.105C39.5423 157.719 39.6089 157.355 39.742 157.012C39.875 156.669 40.0641 156.364 40.3093 156.098C40.5614 155.832 40.8661 155.625 41.2233 155.478C41.5804 155.324 41.9832 155.247 42.4314 155.247C42.8797 155.247 43.2789 155.324 43.6291 155.478C43.9863 155.625 44.2909 155.832 44.5431 156.098C44.7952 156.364 44.9843 156.669 45.1104 157.012C45.2434 157.355 45.31 157.719 45.31 158.105C45.31 158.483 45.2434 158.844 45.1104 159.187C44.9843 159.53 44.7952 159.835 44.5431 160.101C44.2979 160.367 43.9968 160.577 43.6396 160.731C43.2824 160.878 42.8797 160.952 42.4314 160.952ZM40.9921 158.105C40.9921 158.427 41.0552 158.714 41.1812 158.966C41.3073 159.211 41.4789 159.404 41.696 159.544C41.9131 159.684 42.1583 159.754 42.4314 159.754C42.6976 159.754 42.9392 159.684 43.1563 159.544C43.3734 159.397 43.545 159.201 43.6711 158.956C43.8042 158.704 43.8707 158.416 43.8707 158.094C43.8707 157.779 43.8042 157.495 43.6711 157.243C43.545 156.991 43.3734 156.795 43.1563 156.655C42.9392 156.515 42.6976 156.445 42.4314 156.445C42.1583 156.445 41.9131 156.518 41.696 156.665C41.4789 156.805 41.3073 157.002 41.1812 157.254C41.0552 157.499 40.9921 157.783 40.9921 158.105ZM54.6017 160.847H53.1939V157.758C53.1939 157.324 53.1169 157.005 52.9628 156.802C52.8157 156.592 52.6091 156.487 52.343 156.487C52.0698 156.487 51.8072 156.595 51.555 156.812C51.3099 157.023 51.1348 157.299 51.0297 157.642V160.847H49.622V157.758C49.622 157.317 49.5449 156.995 49.3909 156.791C49.2438 156.588 49.0372 156.487 48.771 156.487C48.4979 156.487 48.2352 156.592 47.9831 156.802C47.738 157.012 47.5629 157.289 47.4578 157.632V160.847H46.05V155.342H47.3212V156.361C47.5314 156.004 47.8115 155.73 48.1617 155.541C48.5119 155.345 48.9146 155.247 49.3698 155.247C49.8251 155.247 50.1788 155.359 50.4309 155.583C50.6901 155.807 50.8547 156.084 50.9247 156.413C51.1488 156.035 51.4325 155.748 51.7757 155.552C52.1258 155.349 52.5181 155.247 52.9523 155.247C53.2955 155.247 53.5721 155.31 53.7822 155.436C53.9994 155.555 54.1675 155.72 54.2865 155.93C54.4056 156.133 54.4861 156.364 54.5281 156.623C54.5772 156.883 54.6017 157.145 54.6017 157.411V160.847ZM58.1701 160.952C57.7289 160.952 57.3296 160.878 56.9724 160.731C56.6153 160.577 56.3106 160.37 56.0584 160.111C55.8063 159.845 55.6102 159.544 55.4701 159.208C55.3371 158.865 55.2705 158.504 55.2705 158.126C55.2705 157.6 55.3861 157.121 55.6172 156.686C55.8553 156.252 56.1915 155.905 56.6258 155.646C57.067 155.38 57.5853 155.247 58.1806 155.247C58.7829 155.247 59.2977 155.38 59.7249 155.646C60.1522 155.905 60.4778 156.252 60.702 156.686C60.9331 157.114 61.0487 157.576 61.0487 158.073C61.0487 158.157 61.0452 158.245 61.0382 158.336C61.0311 158.42 61.0241 158.49 61.0171 158.546H56.7623C56.7903 158.826 56.8709 159.071 57.004 159.281C57.144 159.491 57.3191 159.653 57.5292 159.765C57.7464 159.87 57.9775 159.922 58.2226 159.922C58.5028 159.922 58.7654 159.856 59.0106 159.723C59.2627 159.582 59.4343 159.4 59.5253 159.176L60.7335 159.512C60.6004 159.793 60.4078 160.041 60.1557 160.258C59.9105 160.475 59.6199 160.647 59.2837 160.773C58.9475 160.892 58.5763 160.952 58.1701 160.952ZM56.7308 157.653H59.6094C59.5814 157.373 59.5008 157.131 59.3677 156.928C59.2417 156.718 59.0736 156.557 58.8635 156.445C58.6534 156.326 58.4187 156.266 58.1596 156.266C57.9075 156.266 57.6763 156.326 57.4662 156.445C57.2631 156.557 57.095 156.718 56.9619 156.928C56.8359 157.131 56.7588 157.373 56.7308 157.653ZM70.1557 158.924C70.1557 159.344 70.0471 159.698 69.83 159.985C69.6129 160.265 69.3187 160.479 68.9475 160.626C68.5833 160.773 68.1841 160.847 67.7499 160.847H64.1464V153.388H68.1386C68.4888 153.388 68.79 153.482 69.0421 153.671C69.3012 153.853 69.4973 154.092 69.6304 154.386C69.7705 154.673 69.8405 154.974 69.8405 155.289C69.8405 155.646 69.7495 155.986 69.5674 156.308C69.3853 156.63 69.1191 156.869 68.7689 157.023C69.1962 157.149 69.5324 157.376 69.7775 157.705C70.0296 158.035 70.1557 158.441 70.1557 158.924ZM68.6954 158.651C68.6954 158.462 68.6569 158.294 68.5798 158.147C68.5028 157.993 68.3977 157.874 68.2647 157.79C68.1386 157.698 67.9915 157.653 67.8234 157.653H65.5962V159.618H67.7499C67.925 159.618 68.0826 159.575 68.2227 159.491C68.3697 159.4 68.4853 159.281 68.5693 159.134C68.6534 158.987 68.6954 158.826 68.6954 158.651ZM65.5962 154.627V156.508H67.5293C67.6904 156.508 67.8374 156.469 67.9705 156.392C68.1036 156.315 68.2086 156.207 68.2857 156.067C68.3697 155.927 68.4118 155.758 68.4118 155.562C68.4118 155.373 68.3732 155.209 68.2962 155.069C68.2262 154.928 68.1281 154.82 68.002 154.743C67.883 154.666 67.7464 154.627 67.5923 154.627H65.5962ZM70.8673 158.788V155.342H72.2751V158.483C72.2751 158.903 72.3521 159.222 72.5062 159.439C72.6603 159.649 72.8879 159.754 73.1891 159.754C73.3712 159.754 73.5498 159.719 73.7248 159.649C73.9069 159.572 74.0715 159.46 74.2186 159.313C74.3727 159.166 74.5023 158.98 74.6073 158.756V155.342H76.0151V159.271C76.0151 159.418 76.0396 159.523 76.0886 159.586C76.1447 159.649 76.2322 159.688 76.3513 159.702V160.847C76.2112 160.868 76.0921 160.882 75.9941 160.889C75.903 160.903 75.819 160.91 75.7419 160.91C75.4898 160.91 75.2832 160.854 75.1221 160.742C74.968 160.623 74.877 160.461 74.849 160.258L74.8174 159.817C74.5723 160.188 74.2571 160.472 73.8719 160.668C73.4867 160.857 73.063 160.952 72.6007 160.952C72.0334 160.952 71.6027 160.77 71.3085 160.405C71.0144 160.034 70.8673 159.495 70.8673 158.788ZM77.299 161.918C77.4251 161.946 77.5406 161.971 77.6457 161.992C77.7578 162.013 77.8523 162.023 77.9293 162.023C78.0624 162.023 78.171 161.988 78.255 161.918C78.3461 161.855 78.4336 161.736 78.5177 161.561C78.6017 161.393 78.6893 161.155 78.7803 160.847L76.6056 155.342H78.0659L79.5472 159.407L80.8499 155.342H82.1947L79.8834 161.939C79.7994 162.184 79.6698 162.405 79.4947 162.601C79.3266 162.804 79.113 162.962 78.8538 163.074C78.6017 163.193 78.3181 163.252 78.0029 163.252C77.8908 163.252 77.7788 163.242 77.6667 163.221C77.5546 163.207 77.4321 163.179 77.299 163.137V161.918ZM82.7494 160.847V155.342H84.1572V160.847H82.7494ZM82.7494 154.575V153.178H84.1572V154.575H82.7494ZM90.3333 160.847H88.9255V157.758C88.9255 157.317 88.8485 156.995 88.6944 156.791C88.5403 156.588 88.3267 156.487 88.0536 156.487C87.8645 156.487 87.6718 156.536 87.4757 156.634C87.2866 156.732 87.115 156.869 86.961 157.044C86.8069 157.212 86.6948 157.408 86.6248 157.632V160.847H85.217V155.342H86.4882V156.361C86.6283 156.123 86.8069 155.923 87.024 155.762C87.2411 155.594 87.4897 155.468 87.7699 155.384C88.0571 155.293 88.3582 155.247 88.6734 155.247C89.0166 155.247 89.2967 155.31 89.5138 155.436C89.738 155.555 89.9061 155.72 90.0181 155.93C90.1372 156.133 90.2177 156.364 90.2598 156.623C90.3088 156.883 90.3333 157.145 90.3333 157.411V160.847ZM93.5009 160.878C93.1367 160.878 92.8005 160.808 92.4924 160.668C92.1912 160.521 91.9286 160.318 91.7044 160.059C91.4873 159.8 91.3192 159.502 91.2002 159.166C91.0811 158.83 91.0216 158.472 91.0216 158.094C91.0216 157.695 91.0846 157.324 91.2107 156.981C91.3367 156.637 91.5118 156.336 91.736 156.077C91.9671 155.811 92.2367 155.608 92.5449 155.468C92.8601 155.321 93.2068 155.247 93.585 155.247C94.0122 155.247 94.3869 155.345 94.7091 155.541C95.0313 155.73 95.2974 155.986 95.5075 156.308V155.342H96.7367V160.584C96.7367 161.13 96.6036 161.596 96.3375 161.981C96.0783 162.374 95.7176 162.671 95.2554 162.874C94.7931 163.084 94.2678 163.189 93.6795 163.189C93.0842 163.189 92.5799 163.088 92.1667 162.885C91.7535 162.689 91.3998 162.409 91.1056 162.044L91.8725 161.298C92.0827 161.558 92.3453 161.761 92.6605 161.908C92.9826 162.055 93.3223 162.128 93.6795 162.128C93.9807 162.128 94.2538 162.072 94.499 161.96C94.7511 161.855 94.9507 161.687 95.0978 161.456C95.2519 161.232 95.3289 160.941 95.3289 160.584V159.891C95.1468 160.206 94.8877 160.451 94.5515 160.626C94.2223 160.794 93.8721 160.878 93.5009 160.878ZM93.9737 159.754C94.1278 159.754 94.2748 159.73 94.4149 159.681C94.555 159.632 94.6846 159.565 94.8036 159.481C94.9227 159.397 95.0277 159.299 95.1188 159.187C95.2098 159.068 95.2799 158.949 95.3289 158.83V157.516C95.2449 157.299 95.1258 157.11 94.9717 156.949C94.8246 156.788 94.6565 156.665 94.4674 156.581C94.2853 156.49 94.0927 156.445 93.8896 156.445C93.6725 156.445 93.4764 156.49 93.3013 156.581C93.1262 156.672 92.9756 156.802 92.8496 156.97C92.7235 157.131 92.6254 157.313 92.5554 157.516C92.4924 157.712 92.4609 157.919 92.4609 158.136C92.4609 158.36 92.4994 158.57 92.5764 158.767C92.6535 158.963 92.7585 159.134 92.8916 159.281C93.0317 159.428 93.1928 159.544 93.3749 159.628C93.564 159.712 93.7636 159.754 93.9737 159.754ZM100.246 160.847V153.388H103.408C103.751 153.388 104.066 153.458 104.354 153.598C104.641 153.738 104.889 153.927 105.099 154.165C105.317 154.403 105.485 154.669 105.604 154.963C105.723 155.258 105.782 155.559 105.782 155.867C105.782 156.287 105.684 156.686 105.488 157.065C105.292 157.443 105.022 157.751 104.679 157.989C104.336 158.227 103.93 158.346 103.461 158.346H101.696V160.847H100.246ZM101.696 157.075H103.377C103.552 157.075 103.709 157.026 103.849 156.928C103.989 156.83 104.101 156.69 104.185 156.508C104.27 156.319 104.312 156.105 104.312 155.867C104.312 155.608 104.263 155.387 104.164 155.205C104.073 155.023 103.951 154.886 103.797 154.795C103.65 154.704 103.489 154.659 103.313 154.659H101.696V157.075ZM108.874 160.952C108.426 160.952 108.023 160.878 107.666 160.731C107.309 160.577 107.004 160.367 106.752 160.101C106.507 159.835 106.318 159.53 106.185 159.187C106.052 158.844 105.985 158.483 105.985 158.105C105.985 157.719 106.052 157.355 106.185 157.012C106.318 156.669 106.507 156.364 106.752 156.098C107.004 155.832 107.309 155.625 107.666 155.478C108.023 155.324 108.426 155.247 108.874 155.247C109.322 155.247 109.722 155.324 110.072 155.478C110.429 155.625 110.734 155.832 110.986 156.098C111.238 156.364 111.427 156.669 111.553 157.012C111.686 157.355 111.753 157.719 111.753 158.105C111.753 158.483 111.686 158.844 111.553 159.187C111.427 159.53 111.238 159.835 110.986 160.101C110.741 160.367 110.44 160.577 110.082 160.731C109.725 160.878 109.322 160.952 108.874 160.952ZM107.435 158.105C107.435 158.427 107.498 158.714 107.624 158.966C107.75 159.211 107.922 159.404 108.139 159.544C108.356 159.684 108.601 159.754 108.874 159.754C109.14 159.754 109.382 159.684 109.599 159.544C109.816 159.397 109.988 159.201 110.114 158.956C110.247 158.704 110.313 158.416 110.313 158.094C110.313 157.779 110.247 157.495 110.114 157.243C109.988 156.991 109.816 156.795 109.599 156.655C109.382 156.515 109.14 156.445 108.874 156.445C108.601 156.445 108.356 156.518 108.139 156.665C107.922 156.805 107.75 157.002 107.624 157.254C107.498 157.499 107.435 157.783 107.435 158.105ZM119.137 155.342H120.471L118.17 160.847H116.994L116.069 158.483L115.166 160.847H113.979L111.688 155.342H113.012L114.651 159.502L115.292 157.705L114.336 155.352H115.502L116.069 157.033L116.647 155.352H117.813L116.857 157.705L117.508 159.502L119.137 155.342ZM123.279 160.952C122.838 160.952 122.439 160.878 122.082 160.731C121.724 160.577 121.42 160.37 121.168 160.111C120.915 159.845 120.719 159.544 120.579 159.208C120.446 158.865 120.38 158.504 120.38 158.126C120.38 157.6 120.495 157.121 120.726 156.686C120.964 156.252 121.301 155.905 121.735 155.646C122.176 155.38 122.694 155.247 123.29 155.247C123.892 155.247 124.407 155.38 124.834 155.646C125.261 155.905 125.587 156.252 125.811 156.686C126.042 157.114 126.158 157.576 126.158 158.073C126.158 158.157 126.154 158.245 126.147 158.336C126.14 158.42 126.133 158.49 126.126 158.546H121.871C121.899 158.826 121.98 159.071 122.113 159.281C122.253 159.491 122.428 159.653 122.638 159.765C122.855 159.87 123.087 159.922 123.332 159.922C123.612 159.922 123.874 159.856 124.12 159.723C124.372 159.582 124.543 159.4 124.634 159.176L125.843 159.512C125.709 159.793 125.517 160.041 125.265 160.258C125.02 160.475 124.729 160.647 124.393 160.773C124.057 160.892 123.685 160.952 123.279 160.952ZM121.84 157.653H124.718C124.69 157.373 124.61 157.131 124.477 156.928C124.351 156.718 124.183 156.557 123.973 156.445C123.762 156.326 123.528 156.266 123.269 156.266C123.017 156.266 122.785 156.326 122.575 156.445C122.372 156.557 122.204 156.718 122.071 156.928C121.945 157.131 121.868 157.373 121.84 157.653ZM130.083 156.56C129.656 156.56 129.274 156.644 128.938 156.812C128.602 156.974 128.36 157.208 128.213 157.516V160.847H126.805V155.342H128.097V156.518C128.294 156.14 128.542 155.842 128.843 155.625C129.144 155.408 129.463 155.289 129.799 155.268C129.876 155.268 129.936 155.268 129.978 155.268C130.02 155.268 130.055 155.272 130.083 155.279V156.56Z" fill="black"/>
<defs>
<filter id="filter0_i_1_20784" x="35.3535" y="23.9326" width="174.277" height="89.2005" filterUnits="userSpaceOnUse" color-interpolation-filters="sRGB">
<feFlood flood-opacity="0" result="BackgroundImageFix"/>
<feBlend mode="normal" in="SourceGraphic" in2="BackgroundImageFix" result="shape"/>
<feColorMatrix in="SourceAlpha" type="matrix" values="0 0 0 0 0 0 0 0 0 0 0 0 0 0 0 0 0 0 127 0" result="hardAlpha"/>
<feOffset dy="2.04812"/>
<feGaussianBlur stdDeviation="3.07218"/>
<feComposite in2="hardAlpha" operator="arithmetic" k2="-1" k3="1"/>
<feColorMatrix type="matrix" values="0 0 0 0 0.5 0 0 0 0 0.497917 0 0 0 0 0.497917 0 0 0 0.25 0"/>
<feBlend mode="normal" in2="shape" result="effect1_innerShadow_1_20784"/>
</filter>
<filter id="filter1_i_1_20784" x="35.3652" y="23.9326" width="131.002" height="88.6907" filterUnits="userSpaceOnUse" color-interpolation-filters="sRGB">
<feFlood flood-opacity="0" result="BackgroundImageFix"/>
<feBlend mode="normal" in="SourceGraphic" in2="BackgroundImageFix" result="shape"/>
<feColorMatrix in="SourceAlpha" type="matrix" values="0 0 0 0 0 0 0 0 0 0 0 0 0 0 0 0 0 0 127 0" result="hardAlpha"/>
<feOffset dy="2.04812"/>
<feGaussianBlur stdDeviation="3.07218"/>
<feComposite in2="hardAlpha" operator="arithmetic" k2="-1" k3="1"/>
<feColorMatrix type="matrix" values="0 0 0 0 0.5 0 0 0 0 0.497917 0 0 0 0 0.497917 0 0 0 0.25 0"/>
<feBlend mode="normal" in2="shape" result="effect1_innerShadow_1_20784"/>
</filter>
<filter id="filter2_d_1_20784" x="0.208088" y="131.086" width="243.883" height="51.0282" filterUnits="userSpaceOnUse" color-interpolation-filters="sRGB">
<feFlood flood-opacity="0" result="BackgroundImageFix"/>
<feColorMatrix in="SourceAlpha" type="matrix" values="0 0 0 0 0 0 0 0 0 0 0 0 0 0 0 0 0 0 127 0" result="hardAlpha"/>
<feOffset/>
<feGaussianBlur stdDeviation="2.62642"/>
<feComposite in2="hardAlpha" operator="out"/>
<feColorMatrix type="matrix" values="0 0 0 0 0 0 0 0 0 0 0 0 0 0 0 0 0 0 0.1 0"/>
<feBlend mode="normal" in2="BackgroundImageFix" result="effect1_dropShadow_1_20784"/>
<feBlend mode="normal" in="SourceGraphic" in2="effect1_dropShadow_1_20784" result="shape"/>
</filter>
<linearGradient id="paint0_linear_1_20784" x1="52.0286" y1="111.085" x2="176.267" y2="53.6015" gradientUnits="userSpaceOnUse">
<stop stop-color="#F71212"/>
<stop offset="0.696114" stop-color="#FFD600"/>
<stop offset="1" stop-color="#8BE431"/>
</linearGradient>
<linearGradient id="paint1_linear_1_20784" x1="147.171" y1="63.1587" x2="152.767" y2="67.1872" gradientUnits="userSpaceOnUse">
<stop offset="0.338542" stop-color="#545454"/>
<stop offset="0.692708" stop-color="#8D8A8A"/>
</linearGradient>
<clipPath id="clip0_1_20784">
<rect width="11.6096" height="11.6096" fill="white" transform="translate(213.328 151.228)"/>
</clipPath>
</defs>
</svg>
