<svg width="12" height="12" viewBox="0 0 12 12" fill="none" xmlns="http://www.w3.org/2000/svg">
<g id="Apple Logo" clip-path="url(#clip0_1_610)">
<path id="Vector" d="M7.61124 0.644531C7.08845 0.67491 6.48828 0.966159 6.13144 1.33705C5.80906 1.67439 5.55471 2.1754 5.65854 2.66011C6.22667 2.67507 6.79692 2.37627 7.13834 1.99858C7.45709 1.64537 7.69875 1.15236 7.61124 0.644531ZM7.64223 2.65922C6.822 2.65922 6.47906 3.16311 5.91093 3.16311C5.32648 3.16311 4.7922 2.6911 4.08487 2.6911C3.12272 2.69155 1.66016 3.58281 1.66016 5.68258C1.66016 7.59282 3.39114 9.71285 4.36825 9.71285C4.96177 9.71874 5.10566 9.33967 5.91093 9.33559C6.7171 9.3297 6.89106 9.71783 7.48549 9.71285C8.15473 9.70786 8.67738 8.97243 9.05916 8.38979C9.33302 7.97265 9.44561 7.75969 9.65781 7.28814C8.0831 6.88913 7.76978 4.3497 9.65781 3.82464C9.30142 3.21661 8.26115 2.65922 7.64223 2.65922Z" fill="#020202"/>
</g>
<defs>
<clipPath id="clip0_1_610">
<rect width="10.882" height="10.882" fill="white" transform="translate(0.300781 0.191406)"/>
</clipPath>
</defs>
</svg>
