<svg width="20" height="20" viewBox="0 0 20 20" fill="none" xmlns="http://www.w3.org/2000/svg">
<g id="Back Button">
<path id="Vector" d="M11.2636 4.70096L6.41885 9.67345C6.33376 9.76079 6.28613 9.87794 6.28613 9.9999C6.28613 10.1219 6.33376 10.239 6.41885 10.3263L11.2636 15.3007C11.3033 15.3414 11.3507 15.3738 11.403 15.3959C11.4554 15.418 11.5116 15.4294 11.5684 15.4294C11.6253 15.4294 11.6815 15.418 11.7338 15.3959C11.7862 15.3738 11.8336 15.3414 11.8732 15.3007C11.9548 15.2172 12.0004 15.1051 12.0004 14.9883C12.0004 14.8715 11.9548 14.7594 11.8732 14.6759L7.31731 9.9999L11.8732 5.32486C11.9545 5.24138 12 5.12945 12 5.01291C12 4.89638 11.9545 4.78445 11.8732 4.70096C11.8336 4.66024 11.7862 4.62786 11.7338 4.60576C11.6815 4.58365 11.6253 4.57227 11.5684 4.57227C11.5116 4.57227 11.4554 4.58365 11.403 4.60576C11.3507 4.62786 11.3033 4.66024 11.2636 4.70096Z" fill="#787878"/>
<circle id="Ellipse 1" cx="10" cy="10" r="9.85915" stroke="#787878" stroke-width="0.28169"/>
</g>
</svg>
