<svg width="20" height="20" viewBox="0 0 20 20" fill="none" xmlns="http://www.w3.org/2000/svg">
<g id="Back Button">
<path id="Vector" d="M8.73635 15.299L13.5812 10.3265C13.6662 10.2392 13.7139 10.1221 13.7139 10.0001C13.7139 9.87813 13.6662 9.76099 13.5812 9.67365L8.73636 4.69929C8.69672 4.65856 8.64933 4.62619 8.59698 4.60408C8.54463 4.58198 8.48839 4.57059 8.43157 4.57059C8.37475 4.57059 8.31851 4.58198 8.26616 4.60408C8.21381 4.62619 8.16642 4.65856 8.12678 4.69929C8.04524 4.78282 7.99958 4.89495 7.99958 5.01171C7.99958 5.12847 8.04524 5.2406 8.12678 5.32412L12.6827 10.0001L8.12678 14.6751C8.04551 14.7586 8.00004 14.8705 8.00004 14.9871C8.00004 15.1036 8.04551 15.2155 8.12678 15.299C8.16642 15.3398 8.21381 15.3721 8.26616 15.3942C8.3185 15.4163 8.37475 15.4277 8.43157 15.4277C8.48839 15.4277 8.54463 15.4163 8.59698 15.3942C8.64933 15.3721 8.69672 15.3398 8.73635 15.299Z" fill="#787878"/>
<circle id="Ellipse 1" cx="10" cy="10" r="9.85915" transform="rotate(-180 10 10)" stroke="#787878" stroke-width="0.28169"/>
</g>
</svg>
