<svg width="12" height="12" viewBox="0 0 12 12" fill="none" xmlns="http://www.w3.org/2000/svg">
<g id="Google Play">
<path id="Vector" d="M2.76426 1.85775C2.71353 1.85129 2.66147 1.85274 2.6084 1.85864C2.60003 1.85957 2.592 1.85913 2.5836 1.86041C2.52251 1.86585 2.46316 1.88362 2.40914 1.91266C2.37552 1.93051 2.34428 1.95253 2.31616 1.97819C2.13825 2.11206 2.03809 2.33937 2.03809 2.53522V6.37065V10.2831C2.03809 10.4789 2.13153 10.7291 2.35601 10.8508C2.58048 10.9725 2.83455 10.9173 3.00159 10.8163C3.00189 10.816 3.00219 10.8157 3.00248 10.8154C2.97541 10.8319 3.12786 10.7432 3.3204 10.6338C3.51295 10.5245 3.78068 10.3724 4.09794 10.1928C4.73245 9.83365 5.5663 9.36227 6.40133 8.89012C7.23636 8.41797 8.07284 7.9457 8.7118 7.5839C9.03128 7.40299 9.30096 7.25003 9.49731 7.13845C9.69328 7.02708 9.78985 6.97238 9.84888 6.93654C10.0248 6.82986 10.2032 6.62393 10.1996 6.35826C10.196 6.09258 10.0173 5.89883 9.848 5.803C9.77222 5.76021 8.11774 4.82545 6.46243 3.88927C5.63478 3.42117 4.80707 2.95271 4.17499 2.59455C3.85894 2.41547 3.5915 2.26337 3.39833 2.15353C3.20517 2.0437 3.05941 1.95947 3.07421 1.96845C3.07392 1.96845 3.07362 1.96845 3.07333 1.96845C2.98397 1.91446 2.87784 1.87222 2.76426 1.85775ZM2.94492 3.37209L5.55472 6.368L2.94492 9.36479V6.37065V3.37209ZM4.57527 3.86358C5.04776 4.13093 5.49498 4.38359 6.0161 4.67831C6.34691 4.86541 6.39863 4.89469 6.69268 5.06088L6.15602 5.67725L4.57527 3.86358ZM7.49767 5.51519C8.02537 5.81327 8.82287 6.26429 9.01113 6.37065C8.81823 6.48023 8.56843 6.62279 8.26458 6.79485C8.05347 6.91438 7.74831 7.08724 7.50121 7.22701C7.49244 7.21383 7.48298 7.20112 7.47288 7.18893L6.75733 6.368L7.47288 5.54618C7.48159 5.53622 7.48986 5.52587 7.49767 5.51519ZM6.15602 7.05875L6.698 7.68042C6.43571 7.82872 6.22369 7.94915 5.955 8.10107C5.44995 8.38664 5.02231 8.6289 4.56198 8.88924L6.15602 7.05875Z" fill="#020202"/>
</g>
</svg>
