<svg width="21" height="20" viewBox="0 0 21 20" fill="none" xmlns="http://www.w3.org/2000/svg">
<path id="Vector" d="M6.073 10.3307L2.212 6.46969C0.692 8.12669 0.116 9.78669 0.106 9.82069L0 10.1367L0.105 10.4527C0.127 10.5197 2.421 17.1367 10.054 17.1367C10.983 17.1367 11.829 17.0347 12.606 16.8637L9.86 14.1177C8.87128 14.0692 7.93595 13.6547 7.23598 12.9547C6.53601 12.2547 6.12147 11.3194 6.073 10.3307ZM10.054 3.13669C8.199 3.13669 6.679 3.54069 5.412 4.13469L1.707 0.429688L0.293 1.84369L18.293 19.8437L19.707 18.4297L16.409 15.1317C19.047 13.1787 19.988 10.4947 20.002 10.4527L20.107 10.1367L20.002 9.82069C19.98 9.75369 17.687 3.13669 10.054 3.13669ZM11.96 10.6827C12.147 10.0057 11.988 9.24369 11.468 8.72269C10.948 8.20169 10.185 8.04369 9.508 8.23069L8 6.72269C8.61796 6.34267 9.32855 6.13994 10.054 6.13669C12.26 6.13669 14.054 7.93069 14.054 10.1367C14.051 10.862 13.8479 11.5724 13.467 12.1897L11.96 10.6827Z" fill="#181818"/>
</svg>
