<svg width="24" height="24" viewBox="0 0 24 24" fill="none" xmlns="http://www.w3.org/2000/svg">
<g id="house-care" clip-path="url(#clip0_1_574)">
<g id="House Care">
<path id="Vector" d="M5.9324 19.6065C2.5349 16.6815 0.262402 13.0515 -9.78801e-05 8.63395C-0.195098 4.69645 2.5799 1.10395 6.5024 0.751452C7.50406 0.667331 8.51215 0.797007 9.45991 1.13189C10.4077 1.46677 11.2734 1.99922 11.9999 2.69395C12.7264 1.99922 13.5921 1.46677 14.5399 1.13189C15.4876 0.797007 16.4957 0.667331 17.4974 0.751452C21.4199 1.08145 24.1949 4.67395 23.9774 8.61145C23.8385 11.1916 22.9784 13.6809 21.4949 15.7965C19.5292 18.5946 16.9009 20.8621 13.8449 22.3965L12.3449 23.1465C12.2402 23.1992 12.1246 23.2267 12.0074 23.2267C11.8902 23.2267 11.7746 23.1992 11.6699 23.1465L10.1174 22.3965C10.0238 22.3503 9.94092 22.2852 9.87396 22.2052C9.807 22.1252 9.75747 22.0321 9.72853 21.9318C9.69959 21.8316 9.69188 21.7264 9.70589 21.6231C9.7199 21.5197 9.75533 21.4204 9.8099 21.3315C9.90718 21.1684 10.0627 21.0483 10.245 20.9954C10.4274 20.9426 10.623 20.9608 10.7924 21.0465L12.0074 21.6615L13.1849 21.0765C16.0086 19.6504 18.4357 17.5479 20.2499 14.9565C21.6405 12.9901 22.4229 10.6586 22.4999 8.25145C22.5709 6.78103 22.0754 5.33934 21.1156 4.22319C20.1557 3.10704 18.8044 2.40137 17.3399 2.25145C16.5295 2.18547 15.7146 2.2969 14.9516 2.57797C14.1887 2.85904 13.4963 3.303 12.9224 3.87895L12.5399 4.26895C12.4702 4.33925 12.3872 4.39504 12.2958 4.43312C12.2044 4.4712 12.1064 4.4908 12.0074 4.4908C11.9084 4.4908 11.8104 4.4712 11.719 4.43312C11.6276 4.39504 11.5446 4.33925 11.4749 4.26895C10.4894 3.13946 9.11689 2.41974 7.6274 2.25145C6.84798 2.18039 6.06231 2.27298 5.32076 2.52329C4.57921 2.7736 3.89815 3.1761 3.32124 3.705C2.74433 4.23389 2.28431 4.8775 1.97066 5.59456C1.65702 6.31162 1.49667 7.0863 1.4999 7.86895C1.4999 12.1815 3.6524 15.6615 6.8924 18.459C7.02867 18.5907 7.10999 18.7692 7.11998 18.9585C7.12997 19.1479 7.0679 19.3339 6.94626 19.4793C6.82462 19.6247 6.65243 19.7187 6.46433 19.7423C6.27623 19.7658 6.08618 19.7173 5.9324 19.6065Z" fill="#38004D"/>
<path id="Vector_2" d="M17.7375 10.682L12.4875 6.182C12.3517 6.06581 12.1788 6.00195 12 6.00195C11.8213 6.00195 11.6484 6.06581 11.5125 6.182L9.00004 8.3345V6.752C9.00004 6.55309 8.92102 6.36232 8.78037 6.22167C8.63972 6.08102 8.44895 6.002 8.25004 6.002C8.05113 6.002 7.86036 6.08102 7.71971 6.22167C7.57906 6.36232 7.50004 6.55309 7.50004 6.752V9.6245L6.26254 10.682C6.11137 10.8113 6.01775 10.9953 6.00227 11.1937C5.9868 11.392 6.05075 11.5883 6.18004 11.7395C6.30933 11.8907 6.49338 11.9843 6.6917 11.9998C6.89002 12.0152 7.08637 11.9513 7.23754 11.822L7.50004 11.597V15.002C7.50004 15.3998 7.65807 15.7814 7.93938 16.0627C8.22068 16.344 8.60221 16.502 9.00004 16.502H15C15.3979 16.502 15.7794 16.344 16.0607 16.0627C16.342 15.7814 16.5 15.3998 16.5 15.002V11.597L16.7625 11.822C16.9137 11.9513 17.1101 12.0152 17.3084 11.9998C17.5067 11.9843 17.6907 11.8907 17.82 11.7395C17.9493 11.5883 18.0133 11.392 17.9978 11.1937C17.9823 10.9953 17.8887 10.8113 17.7375 10.682ZM15 15.002H12.75V13.502C12.75 13.3031 12.671 13.1123 12.5304 12.9717C12.3897 12.831 12.199 12.752 12 12.752C11.8011 12.752 11.6104 12.831 11.4697 12.9717C11.3291 13.1123 11.25 13.3031 11.25 13.502V15.002H9.00004V10.3145L12 7.742L15 10.3145V15.002Z" fill="#3E3E3E"/>
</g>
</g>
<defs>
<clipPath id="clip0_1_574">
<rect width="24" height="24" fill="white"/>
</clipPath>
</defs>
</svg>
