<svg width="23" height="23" viewBox="0 0 23 23" fill="none" xmlns="http://www.w3.org/2000/svg">
<g id="mortgage" clip-path="url(#clip0_1_594)">
<path id="Vector" d="M3.99831 17.2749H5.34597V18.6225H3.99831V17.2749ZM8.93323 6.00808L6.45831 3.58984L3.9834 6.00808V9.36862H8.93323V6.00808ZM7.58557 8.02097H5.33105V6.57557L6.45831 5.47411L7.58557 6.57557V8.02097ZM12.4531 7.6651C12.0034 7.6651 11.4896 7.5191 11.104 7.29134L10.6603 8.29576C11.0107 8.51195 11.5771 8.66953 12.1611 8.70462V9.3237H12.9844V8.67549C13.8897 8.51774 14.3453 7.96885 14.3453 7.33801C14.3453 5.83138 12.0851 6.24006 12.0851 5.7496C12.0851 5.6094 12.2136 5.49271 12.6166 5.49271C12.9729 5.49271 13.3524 5.59185 13.7555 5.79628L14.1701 4.79765C13.8373 4.61076 13.4166 4.49986 12.9844 4.45898V3.83411H12.1611V4.47056C11.2034 4.6048 10.7243 5.15965 10.7243 5.81962C10.7243 7.3438 12.9844 6.92915 12.9844 7.44312C12.9844 7.58333 12.8444 7.6651 12.4531 7.6651Z" fill="black"/>
<path id="Vector_2" d="M21.7748 7.64935C20.7648 6.63931 19.1213 6.63949 18.1112 7.64935L18.0886 7.67199V0H0.449219V23H18.0886V14.9992L21.7748 11.3129C22.7849 10.3029 22.7849 8.65939 21.7748 7.64935ZM20.8218 10.3599L13.9077 17.2742H12.1445L12.1459 15.5205L19.0642 8.60236C19.5487 8.1177 20.3373 8.11787 20.8218 8.60236C21.3065 9.08685 21.3065 9.87544 20.8218 10.3599ZM1.79688 21.6523V1.34766H16.7409V9.01965L14.2364 11.5242H3.99805V12.8719H12.8887L11.3614 14.3992H3.99805V15.7469H10.7981L10.7969 17.2742H8.92436V18.6219H14.4657L16.7408 16.3468V21.6523H1.79688Z" fill="black"/>
</g>
<defs>
<clipPath id="clip0_1_594">
<rect width="23" height="23" fill="white"/>
</clipPath>
</defs>
</svg>
