<svg width="21" height="25" viewBox="0 0 21 25" fill="none" xmlns="http://www.w3.org/2000/svg">
<g id="Saved Searches Icon">
<path id="Vector" d="M5 11.4297C3.6744 11.4313 2.40354 11.9699 1.4662 12.9273C0.528855 13.8847 0.00156917 15.1828 5.31949e-06 16.5368C-0.00158236 17.6433 0.352269 18.7198 1.00728 19.6011C1.00728 19.6011 1.14364 19.7845 1.16591 19.811L5 24.4297L8.83591 19.8087C8.8559 19.784 8.99272 19.6011 8.99272 19.6011L8.99318 19.5997C9.64786 18.7188 10.0015 17.6428 10 16.5368C9.99843 15.1828 9.47114 13.8847 8.5338 12.9273C7.59646 11.9699 6.3256 11.4313 5 11.4297ZM5 18.394C4.6404 18.394 4.28887 18.2851 3.98987 18.081C3.69088 17.8769 3.45783 17.5869 3.32022 17.2475C3.18261 16.9082 3.1466 16.5348 3.21676 16.1745C3.28691 15.8143 3.46008 15.4834 3.71435 15.2236C3.96863 14.9639 4.2926 14.787 4.64529 14.7154C4.99798 14.6437 5.36356 14.6805 5.69579 14.8211C6.02802 14.9616 6.31198 15.1997 6.51176 15.5051C6.71155 15.8105 6.81818 16.1695 6.81818 16.5368C6.81758 17.0292 6.62583 17.5012 6.28498 17.8493C5.94414 18.1975 5.48203 18.3934 5 18.394Z" fill="#181818"/>
<path id="Vector_2" d="M0 3.42964C0 2.634 0.31607 1.87095 0.878679 1.30835C1.44129 0.745752 2.20435 0.429688 3 0.429688H15.5685C16.3641 0.429857 17.127 0.746034 17.6895 1.30867L20.121 3.74013C20.6836 4.3026 20.9998 5.06552 21 5.86109V18.4294C21 19.225 20.6839 19.9881 20.1213 20.5507C19.5587 21.1133 18.7956 21.4293 18 21.4293H10.5L11.5 19.9293H16.5V13.1795C16.5 12.9806 16.421 12.7898 16.2803 12.6491C16.1397 12.5085 15.9489 12.4295 15.75 12.4295H10.8645C10.4853 11.8636 10.0231 11.3579 9.4935 10.9295H15.75C16.3467 10.9295 16.919 11.1666 17.341 11.5885C17.7629 12.0105 18 12.5827 18 13.1795V19.9293C18.3978 19.9293 18.7794 19.7713 19.0607 19.49C19.342 19.2087 19.5 18.8272 19.5 18.4294V5.86109C19.4999 5.46331 19.3418 5.08185 19.0605 4.80061L16.629 2.36915C16.3478 2.08783 15.9663 1.92975 15.5685 1.92966H15V5.6796C15 6.27632 14.7629 6.84861 14.341 7.27056C13.919 7.69251 13.3467 7.92956 12.75 7.92956H6.75C6.15326 7.92956 5.58096 7.69251 5.15901 7.27056C4.73705 6.84861 4.5 6.27632 4.5 5.6796V1.92966H3C2.60217 1.92966 2.22064 2.08769 1.93934 2.36899C1.65804 2.65029 1.5 3.03182 1.5 3.42964V10.565C0.934005 10.9441 0.428334 11.4063 0 11.936V3.42964ZM6 1.92966V5.6796C6 5.8785 6.07902 6.06927 6.21967 6.20992C6.36032 6.35057 6.55109 6.42958 6.75 6.42958H12.75C12.9489 6.42958 13.1397 6.35057 13.2803 6.20992C13.421 6.06927 13.5 5.8785 13.5 5.6796V1.92966H6Z" fill="#181818"/>
</g>
</svg>
