<svg width="29" height="29" viewBox="0 0 29 29" fill="none" xmlns="http://www.w3.org/2000/svg">
<g id="Apple Logo">
<path id="Vector" d="M19.3196 1.19922C17.9381 1.2795 16.3521 2.04912 15.4092 3.02922C14.5573 3.92064 13.8851 5.24457 14.1595 6.5254C15.6608 6.56494 17.1677 5.77537 18.0699 4.77731C18.9122 3.84394 19.5508 2.54115 19.3196 1.19922ZM19.4015 6.52306C17.234 6.52306 16.3278 7.8546 14.8265 7.8546C13.282 7.8546 11.8702 6.60731 10.0011 6.60731C7.45859 6.6085 3.59375 8.96367 3.59375 14.5123C3.59375 19.5602 8.1679 25.1624 10.7499 25.1624C12.3183 25.1779 12.6985 24.1762 14.8265 24.1654C16.9568 24.1499 17.4165 25.1755 18.9873 25.1624C20.7557 25.1492 22.1369 23.2058 23.1457 21.6662C23.8694 20.5639 24.1669 20.0011 24.7276 18.755C20.5664 17.7006 19.7385 10.9902 24.7276 9.6027C23.7859 7.99597 21.0369 6.52306 19.4015 6.52306Z" fill="white"/>
</g>
</svg>
