<svg width="29" height="29" viewBox="0 0 29 29" fill="none" xmlns="http://www.w3.org/2000/svg">
<g id="Google Play">
<path id="Vector" d="M5.51267 2.40767C5.37861 2.39059 5.24106 2.39442 5.10081 2.41001C5.07871 2.41247 5.05748 2.41132 5.03528 2.41469C4.87386 2.42907 4.71702 2.47604 4.57427 2.55276C4.48542 2.59994 4.40287 2.65812 4.32856 2.72593C3.85843 3.0797 3.59375 3.68036 3.59375 4.19789V14.3331V24.6719C3.59375 25.1892 3.84069 25.8504 4.43386 26.1719C5.02704 26.4934 5.69843 26.3476 6.13983 26.0806C6.14061 26.0798 6.14139 26.0791 6.14217 26.0783C6.07064 26.1219 6.47348 25.8875 6.98229 25.5986C7.4911 25.3097 8.19858 24.9077 9.03694 24.4332C10.7136 23.4841 12.9171 22.2385 15.1237 20.9908C17.3302 19.7431 19.5407 18.4952 21.2291 17.5391C22.0734 17.061 22.786 16.6568 23.3048 16.362C23.8227 16.0677 24.0779 15.9231 24.2339 15.8284C24.6988 15.5465 25.17 15.0024 25.1606 14.3003C25.1511 13.5983 24.6789 13.0863 24.2315 12.833C24.0313 12.72 19.6593 10.2499 15.2851 7.77598C13.0981 6.53904 10.9108 5.30112 9.24053 4.35468C8.40539 3.88146 7.69866 3.47953 7.18822 3.18928C6.67778 2.89904 6.29262 2.67647 6.33173 2.70019C6.33095 2.70019 6.33017 2.70019 6.32939 2.70019C6.09326 2.55753 5.8128 2.44591 5.51267 2.40767ZM5.99006 6.40933L12.8865 14.3261L5.99006 22.2451V14.3331V6.40933ZM10.2983 7.70811C11.5468 8.41458 12.7286 9.08223 14.1057 9.86105C14.9799 10.3554 15.1165 10.4328 15.8936 10.872L14.4754 12.5007L10.2983 7.70811ZM18.0208 12.0725C19.4152 12.8602 21.5226 14.052 22.0201 14.3331C21.5104 14.6226 20.8503 14.9994 20.0473 15.454C19.4895 15.7699 18.6831 16.2267 18.0301 16.596C18.0069 16.5612 17.982 16.5276 17.9552 16.4954L16.0644 14.3261L17.9552 12.1544C17.9783 12.1281 18.0001 12.1007 18.0208 12.0725ZM14.4754 16.1514L15.9076 17.7942C15.2145 18.186 14.6543 18.5043 13.9442 18.9057C12.6097 19.6603 11.4796 20.3005 10.2632 20.9885L14.4754 16.1514Z" fill="white"/>
</g>
</svg>
