<svg width="274" height="66" viewBox="0 0 274 66" fill="none" xmlns="http://www.w3.org/2000/svg">
<path d="M0 21.2265C0 19.3928 1.48652 17.9062 3.32024 17.9062H27.5433V53.1772H3.32024C1.48652 53.1772 0 51.6907 0 49.857V21.2265Z" fill="white"/>
<path d="M14.1149 44.2556C13.1709 44.2556 12.3549 44.0716 11.6669 43.7036C10.9789 43.3196 10.4349 42.7676 10.0349 42.0476V44.0156H6.07485V26.4956H10.6349V33.2636C11.0029 32.5756 11.5229 32.0556 12.1949 31.7036C12.8669 31.3356 13.6589 31.1516 14.5709 31.1516C15.3389 31.1516 16.0509 31.3196 16.7069 31.6556C17.3629 31.9756 17.9309 32.4316 18.4109 33.0236C18.9069 33.6156 19.2909 34.3196 19.5629 35.1356C19.8349 35.9356 19.9709 36.8076 19.9709 37.7516C19.9709 38.6796 19.8189 39.5436 19.5149 40.3436C19.2269 41.1276 18.8189 41.8156 18.2909 42.4076C17.7789 42.9996 17.1629 43.4556 16.4429 43.7756C15.7389 44.0956 14.9629 44.2556 14.1149 44.2556ZM12.7949 40.4156C13.1629 40.4156 13.4989 40.3516 13.8029 40.2236C14.1069 40.0956 14.3709 39.9196 14.5949 39.6956C14.8189 39.4556 14.9869 39.1756 15.0989 38.8556C15.2269 38.5356 15.2909 38.1756 15.2909 37.7756C15.2909 37.2636 15.1869 36.7996 14.9789 36.3836C14.7869 35.9516 14.5149 35.6156 14.1629 35.3756C13.8269 35.1196 13.4349 34.9916 12.9869 34.9916C12.6669 34.9916 12.3549 35.0716 12.0509 35.2316C11.7469 35.3916 11.4669 35.6156 11.2109 35.9036C10.9709 36.1756 10.7789 36.4956 10.6349 36.8636V39.1196C10.7789 39.3276 10.9309 39.5196 11.0909 39.6956C11.2669 39.8556 11.4429 39.9916 11.6189 40.1036C11.7949 40.1996 11.9789 40.2796 12.1709 40.3436C12.3789 40.3916 12.5869 40.4156 12.7949 40.4156Z" fill="black"/>
<rect x="27.5439" y="17.9062" width="27.5433" height="35.271" fill="#C5C5C5"/>
<path d="M33.4988 39.6956V31.3916H38.0588V38.6636C38.0588 39.2076 38.1788 39.6396 38.4188 39.9596C38.6748 40.2636 39.0188 40.4156 39.4508 40.4156C39.6908 40.4156 39.9308 40.3836 40.1708 40.3196C40.4108 40.2556 40.6508 40.1276 40.8908 39.9356C41.1468 39.7436 41.3948 39.4716 41.6348 39.1196V31.3916H46.1948V38.9756C46.1948 39.4076 46.2588 39.7116 46.3868 39.8876C46.5148 40.0476 46.7388 40.1436 47.0588 40.1756V44.0156C46.6588 44.0956 46.2988 44.1516 45.9788 44.1836C45.6588 44.2316 45.3788 44.2556 45.1388 44.2556C44.3708 44.2556 43.7628 44.1116 43.3148 43.8236C42.8668 43.5356 42.5788 43.0956 42.4508 42.5036L42.3548 42.0476C41.7628 42.8316 41.0508 43.3996 40.2188 43.7516C39.4028 44.0876 38.4748 44.2556 37.4348 44.2556C36.1708 44.2556 35.1948 43.8636 34.5068 43.0796C33.8348 42.2956 33.4988 41.1676 33.4988 39.6956Z" fill="black"/>
<rect x="55.3359" y="17.9062" width="27.5433" height="35.271" fill="#E8E8E8"/>
<path d="M61.7469 45.2876C62.1149 45.4156 62.4509 45.5116 62.7549 45.5756C63.0749 45.6556 63.3629 45.6956 63.6189 45.6956C63.9549 45.6956 64.2349 45.6316 64.4589 45.5036C64.6829 45.3916 64.8589 45.2076 64.9869 44.9516C65.1149 44.6956 65.1949 44.3836 65.2269 44.0156L60.6429 31.3916H65.3229L67.7229 39.3356L69.6669 31.3916H73.9149L69.6429 45.5276C69.4029 46.3436 69.0109 47.0556 68.4669 47.6636C67.9229 48.2876 67.2749 48.7676 66.5229 49.1036C65.7709 49.4556 64.9629 49.6316 64.0989 49.6316C63.6989 49.6316 63.2989 49.5916 62.8989 49.5116C62.5149 49.4476 62.1309 49.3356 61.7469 49.1756V45.2876Z" fill="black"/>
<rect x="83.0029" y="17.9062" width="27.5433" height="35.271" fill="white"/>
<path d="M94.8338 44.2556C93.7298 44.2556 92.7458 44.0876 91.8818 43.7516C91.0178 43.3996 90.2898 42.9276 89.6978 42.3356C89.1218 41.7436 88.6818 41.0636 88.3778 40.2956C88.0738 39.5276 87.9218 38.7196 87.9218 37.8716C87.9218 36.6556 88.1858 35.5436 88.7138 34.5356C89.2418 33.5116 90.0178 32.6956 91.0418 32.0876C92.0658 31.4636 93.3298 31.1516 94.8338 31.1516C96.3378 31.1516 97.6018 31.4556 98.6258 32.0636C99.6498 32.6716 100.426 33.4716 100.954 34.4636C101.482 35.4556 101.746 36.5356 101.746 37.7036C101.746 37.9436 101.73 38.1916 101.698 38.4476C101.682 38.6876 101.658 38.9036 101.626 39.0956H92.7698C92.8018 39.5436 92.9218 39.9116 93.1298 40.1996C93.3538 40.4716 93.6258 40.6716 93.9458 40.7996C94.2818 40.9276 94.6258 40.9916 94.9778 40.9916C95.4738 40.9916 95.9378 40.8796 96.3698 40.6556C96.8178 40.4316 97.1138 40.1196 97.2578 39.7196L101.122 40.8236C100.786 41.4956 100.314 42.0876 99.7058 42.5996C99.1138 43.1116 98.4098 43.5196 97.5938 43.8236C96.7778 44.1116 95.8578 44.2556 94.8338 44.2556ZM92.6738 36.3596H96.8498C96.8018 35.9436 96.6818 35.5916 96.4898 35.3036C96.3138 35.0156 96.0738 34.7916 95.7698 34.6316C95.4818 34.4716 95.1458 34.3916 94.7618 34.3916C94.3778 34.3916 94.0338 34.4716 93.7298 34.6316C93.4418 34.7916 93.2018 35.0156 93.0098 35.3036C92.8338 35.5916 92.7218 35.9436 92.6738 36.3596Z" fill="black"/>
<rect x="109.779" y="17.9062" width="27.5433" height="35.271" fill="#C5C5C5"/>
<path d="M127.531 35.2796C126.651 35.2796 125.851 35.3756 125.131 35.5676C124.411 35.7596 123.875 36.0796 123.523 36.5276V44.0156H118.963V31.3916H123.139V33.7916C123.587 32.9436 124.147 32.2956 124.819 31.8476C125.491 31.3836 126.203 31.1516 126.955 31.1516C127.131 31.1516 127.251 31.1516 127.315 31.1516C127.395 31.1516 127.467 31.1596 127.531 31.1756V35.2796Z" fill="black"/>
<rect x="136.555" y="17.9062" width="27.5433" height="35.271" fill="#E8E8E8"/>
<path d="M146.627 44.0156V36.2876H145.067V32.8556H146.627V31.4876C146.627 30.4316 146.819 29.5116 147.203 28.7276C147.587 27.9436 148.123 27.3356 148.811 26.9036C149.515 26.4716 150.331 26.2556 151.259 26.2556C151.803 26.2556 152.363 26.3196 152.939 26.4476C153.515 26.5596 154.123 26.7356 154.763 26.9756L153.995 30.4316C153.739 30.3356 153.451 30.2556 153.131 30.1916C152.811 30.1276 152.531 30.0956 152.291 30.0956C151.923 30.0956 151.643 30.1996 151.451 30.4076C151.275 30.5996 151.187 30.9036 151.187 31.3196V32.8556H153.947V36.2876H151.187V44.0156H146.627Z" fill="black"/>
<rect x="163.827" y="17.9062" width="27.5433" height="35.271" fill="white"/>
<path d="M176.118 44.2556C174.998 44.2556 174.006 44.0796 173.142 43.7276C172.278 43.3756 171.55 42.8956 170.958 42.2876C170.382 41.6636 169.942 40.9596 169.638 40.1756C169.35 39.3916 169.206 38.5676 169.206 37.7036C169.206 36.8396 169.35 36.0156 169.638 35.2316C169.942 34.4316 170.382 33.7276 170.958 33.1196C171.55 32.5116 172.278 32.0316 173.142 31.6796C174.006 31.3276 174.998 31.1516 176.118 31.1516C177.254 31.1516 178.246 31.3276 179.094 31.6796C179.958 32.0316 180.678 32.5116 181.254 33.1196C181.846 33.7276 182.286 34.4316 182.574 35.2316C182.878 36.0156 183.03 36.8396 183.03 37.7036C183.03 38.5676 182.878 39.3916 182.574 40.1756C182.286 40.9596 181.846 41.6636 181.254 42.2876C180.678 42.8956 179.958 43.3756 179.094 43.7276C178.246 44.0796 177.254 44.2556 176.118 44.2556ZM173.886 37.7036C173.886 38.2636 173.982 38.7516 174.174 39.1676C174.366 39.5676 174.63 39.8796 174.966 40.1036C175.302 40.3116 175.686 40.4156 176.118 40.4156C176.55 40.4156 176.934 40.3116 177.27 40.1036C177.606 39.8796 177.87 39.5676 178.062 39.1676C178.254 38.7516 178.35 38.2636 178.35 37.7036C178.35 37.1436 178.254 36.6636 178.062 36.2636C177.87 35.8476 177.606 35.5356 177.27 35.3276C176.934 35.1036 176.55 34.9916 176.118 34.9916C175.686 34.9916 175.302 35.1036 174.966 35.3276C174.63 35.5356 174.366 35.8476 174.174 36.2636C173.982 36.6636 173.886 37.1436 173.886 37.7036Z" fill="black"/>
<rect x="190.997" y="17.9062" width="27.5433" height="35.271" fill="#C5C5C5"/>
<path d="M200.978 26.4956H205.538V38.9996C205.538 39.4636 205.634 39.8236 205.826 40.0796C206.034 40.3196 206.33 40.4396 206.714 40.4396C206.906 40.4396 207.114 40.4076 207.338 40.3436C207.562 40.2796 207.77 40.1916 207.962 40.0796L208.538 43.4396C207.994 43.6956 207.378 43.8956 206.69 44.0396C206.018 44.1836 205.378 44.2556 204.77 44.2556C203.554 44.2556 202.618 43.9436 201.962 43.3196C201.306 42.6796 200.978 41.7756 200.978 40.6076V26.4956Z" fill="black"/>
<rect x="218.913" y="17.9062" width="27.5433" height="35.271" fill="#E8E8E8"/>
<path d="M228.976 44.0156V31.3916H233.536V44.0156H228.976ZM228.976 30.3356V26.4956H233.536V30.3356H228.976Z" fill="black"/>
<path d="M246.457 17.9062H270.68C272.514 17.9062 274 19.3928 274 21.2265V49.857C274 51.6907 272.514 53.1772 270.68 53.1772H246.457V17.9062Z" fill="white"/>
<path d="M258.747 44.2556C257.627 44.2556 256.635 44.0796 255.771 43.7276C254.907 43.3756 254.179 42.8956 253.587 42.2876C253.011 41.6636 252.571 40.9596 252.267 40.1756C251.979 39.3916 251.835 38.5676 251.835 37.7036C251.835 36.8396 251.979 36.0156 252.267 35.2316C252.571 34.4316 253.011 33.7276 253.587 33.1196C254.179 32.5116 254.907 32.0316 255.771 31.6796C256.635 31.3276 257.627 31.1516 258.747 31.1516C259.883 31.1516 260.875 31.3276 261.723 31.6796C262.587 32.0316 263.307 32.5116 263.883 33.1196C264.475 33.7276 264.915 34.4316 265.203 35.2316C265.507 36.0156 265.659 36.8396 265.659 37.7036C265.659 38.5676 265.507 39.3916 265.203 40.1756C264.915 40.9596 264.475 41.6636 263.883 42.2876C263.307 42.8956 262.587 43.3756 261.723 43.7276C260.875 44.0796 259.883 44.2556 258.747 44.2556ZM256.515 37.7036C256.515 38.2636 256.611 38.7516 256.803 39.1676C256.995 39.5676 257.259 39.8796 257.595 40.1036C257.931 40.3116 258.315 40.4156 258.747 40.4156C259.179 40.4156 259.563 40.3116 259.899 40.1036C260.235 39.8796 260.499 39.5676 260.691 39.1676C260.883 38.7516 260.979 38.2636 260.979 37.7036C260.979 37.1436 260.883 36.6636 260.691 36.2636C260.499 35.8476 260.235 35.5356 259.899 35.3276C259.563 35.1036 259.179 34.9916 258.747 34.9916C258.315 34.9916 257.931 35.1036 257.595 35.3276C257.259 35.5356 256.995 35.8476 256.803 36.2636C256.611 36.6636 256.515 37.1436 256.515 37.7036Z" fill="black"/>
<path d="M38.6567 3.39594C39.9859 1.67729 42.5803 1.67729 43.9095 3.39594L55.0715 17.8284H27.4946L38.6567 3.39594Z" fill="white"/>
</svg>
